<?xml version="1.0" encoding="UTF-8"?>
<svg id="Camada_2" data-name="Camada 2" xmlns="http://www.w3.org/2000/svg" viewBox="0 0 1280 411.13">
  <defs>
    <style>
      .cls-1 {
        fill: #010101;
      }

      .cls-1, .cls-2, .cls-3, .cls-4, .cls-5, .cls-6 {
        stroke-width: 0px;
      }

      .cls-2 {
        fill: #f6a025;
      }

      .cls-3 {
        fill: #fab728;
      }

      .cls-4 {
        fill: #e05f10;
      }

      .cls-5 {
        fill: #fdc90c;
      }

      .cls-6 {
        fill: #ee761f;
      }
    </style>
  </defs>
  <g>
    <path class="cls-1" d="M656.67,123.92h-86.09c-7.37,0-13.34,5.97-13.34,13.34v56.06h-27.76V4.04h127.2v119.88ZM615.57,28.27h-44.99c-7.37,0-13.34,5.97-13.34,13.34v44.99c0,7.37,5.97,13.34,13.34,13.34h44.99c7.37,0,13.34-5.97,13.34-13.34v-44.99c0-7.37-5.97-13.34-13.34-13.34Z"/>
    <path class="cls-1" d="M821.15,63.85c0,34.32-25.99,60.07-62.59,60.07h-30.57c-7.37,0-13.34,5.97-13.34,13.34v56.06h-27.76V4.04h71.67c36.59,0,62.59,25.49,62.59,59.81ZM793.14,64.1c0-20.69-14.89-35.84-37.35-35.84h-27.79c-7.37,0-13.34,5.97-13.34,13.34v44.99c0,7.37,5.97,13.34,13.34,13.34h27.79c22.46,0,37.35-15.4,37.35-35.84Z"/>
    <path class="cls-1" d="M840.06,4.04h27.76v151.46c0,7.37,5.97,13.34,13.34,13.34h61.86v24.48h-102.97V4.04Z"/>
    <path class="cls-1" d="M1097.91,193.32h-27.51v-44.45c0-7.37-5.97-13.34-13.34-13.34h-50.54c-7.37,0-13.34,5.97-13.34,13.34v44.45h-27.51v-126.69c0-45.43,30.03-66.63,66.12-66.63s66.12,21.2,66.12,66.63v126.69ZM1006.52,111.3h50.54c7.37,0,13.34-5.97,13.34-13.34v-28.3c0-32.3-17.41-44.67-38.61-44.67s-38.61,12.37-38.61,44.67v28.3c0,7.37,5.97,13.34,13.34,13.34Z"/>
    <path class="cls-1" d="M1250.98,193.32l-83.19-127.54c-2.42-3.71-8.17-1.99-8.17,2.43v125.11h-27V4.04h29.53l82.67,127.46c2.41,3.72,8.18,2.01,8.18-2.42V4.04h27v189.28h-29.02Z"/>
    <path class="cls-1" d="M466.64,4.04h27.76v24.23l-23.17,9.16c-.97.38-.69,1.82.35,1.82h22.82v154.07h-27.76V4.04Z"/>
  </g>
  <g>
    <circle class="cls-4" cx="336.94" cy="74.14" r="69.06"/>
    <polyline class="cls-6" points="252.61 410.13 183.54 410.13 183.54 224.75 252.61 197.44"/>
    <path class="cls-2" d="M168.27,410.13h-34.53v-128.56c0-22.4,13.69-42.52,34.53-50.74h0"/>
    <path class="cls-2" d="M133.74,155.5c0,25.54,13.91,47.78,34.53,59.72v-119.5c-20.62,11.94-34.52,34.19-34.53,59.72v.05Z"/>
    <path class="cls-3" d="M84.34,410.13h34.53v-128.56c0-22.4-13.69-42.52-34.53-50.74h0"/>
    <path class="cls-3" d="M118.87,155.5c0,25.54-13.91,47.78-34.53,59.72v-119.5c20.62,11.94,34.52,34.19,34.53,59.72v.05Z"/>
    <path class="cls-4" d="M267.88,191.44v218.73l83.55.02c30.14,0,54.57-24.42,54.57-54.56v-218.87l-138.12,54.68Z"/>
    <path class="cls-5" d="M0,197.44v158.14c0,30.13,24.43,54.56,54.56,54.56h14.51v-185.35L0,197.44Z"/>
    <path class="cls-6" d="M252.6,181.72c-38.14,0-69.06-30.92-69.06-69.06s30.92-69.06,69.06-69.06"/>
    <path class="cls-5" d="M0,181.72c38.14,0,69.06-30.92,69.06-69.06,0-38.14-30.92-69.06-69.06-69.06"/>
  </g>
  <g>
    <path class="cls-1" d="M466.64,223.18h4.81v44.02h-4.81v-44.02Z"/>
    <path class="cls-1" d="M510.04,267.21l-23.18-35.57h-.24v35.57h-4.81v-44.02h5.28l23.13,35.57h.23v-35.57h4.75v44.02h-5.16Z"/>
    <path class="cls-1" d="M535.33,240.67l6.75,3.99c5.17,3.05,8.16,6.52,8.16,11.62,0,7.16-5.22,11.86-13.38,11.86-8.57,0-13.15-5.58-14.03-12.8l4.28-1.23c.65,4.87,3.76,9.63,9.98,9.63,5.22,0,8.22-2.99,8.22-7.34,0-2.88-1.59-5.46-5.81-7.87l-6.28-3.7c-5.05-2.94-8.75-5.63-8.75-11.74s4.58-10.86,12.27-10.86c7.28,0,11.62,3.82,13.03,10.27l-4.17,1.23c-1.17-4.81-4.4-7.22-9.04-7.22s-7.28,2.64-7.28,6.34,2.05,5.58,6.04,7.81Z"/>
    <path class="cls-1" d="M566.51,227.41h-12.38v-4.23h29.46v4.23h-12.27v39.8h-4.81v-39.8Z"/>
    <path class="cls-1" d="M589.67,223.18h4.81v44.02h-4.81v-44.02Z"/>
    <path class="cls-1" d="M612.89,227.41h-12.38v-4.23h29.46v4.23h-12.27v39.8h-4.81v-39.8Z"/>
    <path class="cls-1" d="M667.81,252.18c0,9.39-6.22,15.97-15.96,15.97s-15.97-6.57-15.97-15.97v-29h4.81v29.46c0,6.57,4.58,11.09,11.15,11.09s11.15-4.52,11.15-11.09v-29.46h4.81v29Z"/>
    <path class="cls-1" d="M686.12,227.41h-12.38v-4.23h29.46v4.23h-12.27v39.8h-4.81v-39.8Z"/>
    <path class="cls-1" d="M704.46,245.19c0-13.15,9.45-22.95,22.36-22.95s22.36,9.8,22.36,22.95-9.51,22.95-22.36,22.95-22.36-9.8-22.36-22.95ZM744.26,245.19c0-10.68-7.28-18.61-17.43-18.61s-17.43,7.92-17.43,18.61,7.28,18.55,17.43,18.55,17.43-7.87,17.43-18.55Z"/>
    <path class="cls-1" d="M1209.94,267.21v-44.02h14.32c13.62,0,22.54,8.45,22.54,21.95s-8.92,22.07-22.54,22.07h-14.32ZM1241.87,245.14c0-11.09-6.87-17.73-17.61-17.73h-9.51v35.51h9.51c10.74,0,17.61-6.69,17.61-17.78Z"/>
    <path class="cls-1" d="M1254.88,223.18h24.83v4.23h-20.02v15.38h18.84v4.23h-18.84v15.91h20.31v4.28h-25.12v-44.02Z"/>
    <path class="cls-1" d="M497.1,308.35c0,7.87-5.93,13.68-14.38,13.68h-11.27v16.67h-4.81v-44.02h16.08c8.45,0,14.38,5.75,14.38,13.68ZM492.17,308.41c0-5.58-3.99-9.51-9.92-9.51h-10.8v18.96h10.8c5.93,0,9.92-4.05,9.92-9.45Z"/>
    <path class="cls-1" d="M503.58,294.67h24.83v4.23h-20.02v15.38h18.84v4.23h-18.84v15.91h20.31v4.28h-25.12v-44.02Z"/>
    <path class="cls-1" d="M545.85,312.16l6.75,3.99c5.17,3.05,8.16,6.52,8.16,11.62,0,7.16-5.22,11.86-13.38,11.86-8.57,0-13.15-5.58-14.03-12.8l4.28-1.23c.65,4.87,3.76,9.63,9.98,9.63,5.22,0,8.22-2.99,8.22-7.34,0-2.88-1.59-5.46-5.81-7.87l-6.28-3.7c-5.05-2.94-8.75-5.63-8.75-11.74s4.58-10.86,12.27-10.86c7.28,0,11.62,3.82,13.03,10.27l-4.17,1.23c-1.17-4.81-4.4-7.22-9.04-7.22s-7.28,2.64-7.28,6.34,2.05,5.58,6.04,7.81Z"/>
    <path class="cls-1" d="M565.97,316.68c0-13.15,9.45-22.95,22.36-22.95s22.36,9.8,22.36,22.95c0,8.69-4.11,15.91-10.62,19.78l5.69,9.57-4.17,2.23-5.58-9.92c-2.35.82-4.93,1.29-7.69,1.29-13.03,0-22.36-9.8-22.36-22.95ZM593.79,334.41l-5.87-9.98,4.28-2.29,5.63,10.39c4.87-3.23,7.92-8.92,7.92-15.85,0-10.68-7.28-18.61-17.43-18.61s-17.43,7.92-17.43,18.61,7.28,18.55,17.43,18.55c1.94,0,3.76-.29,5.46-.82Z"/>
    <path class="cls-1" d="M650.32,323.67c0,9.39-6.22,15.96-15.96,15.96s-15.97-6.57-15.97-15.96v-29h4.81v29.46c0,6.57,4.58,11.09,11.15,11.09s11.15-4.52,11.15-11.09v-29.46h4.81v29Z"/>
    <path class="cls-1" d="M660.49,294.67h4.81v44.02h-4.81v-44.02Z"/>
    <path class="cls-1" d="M685.44,312.16l6.75,3.99c5.17,3.05,8.16,6.52,8.16,11.62,0,7.16-5.22,11.86-13.38,11.86-8.57,0-13.15-5.58-14.03-12.8l4.28-1.23c.65,4.87,3.76,9.63,9.98,9.63,5.22,0,8.22-2.99,8.22-7.34,0-2.88-1.59-5.46-5.81-7.87l-6.28-3.7c-5.05-2.94-8.75-5.63-8.75-11.74s4.58-10.86,12.27-10.86c7.28,0,11.62,3.82,13.03,10.27l-4.17,1.23c-1.17-4.81-4.4-7.22-9.04-7.22s-7.28,2.64-7.28,6.34,2.05,5.58,6.04,7.81Z"/>
    <path class="cls-1" d="M719.47,294.67h6.1l15.32,44.02h-5.17l-4.05-12.09h-18.49l-4.05,12.09h-4.99l15.32-44.02ZM714.66,322.38h15.61l-7.63-23.01h-.24l-7.75,23.01Z"/>
    <path class="cls-1" d="M852.77,308.35c0,7.87-5.93,13.68-14.38,13.68h-11.27v16.67h-4.81v-44.02h16.08c8.45,0,14.38,5.75,14.38,13.68ZM847.84,308.41c0-5.58-3.99-9.51-9.92-9.51h-10.8v18.96h10.8c5.93,0,9.92-4.05,9.92-9.45Z"/>
    <path class="cls-1" d="M859.25,294.67h4.81v39.74h18.96v4.28h-23.77v-44.02Z"/>
    <path class="cls-1" d="M902.5,294.67h6.1l15.32,44.02h-5.17l-4.05-12.09h-18.49l-4.05,12.09h-4.99l15.32-44.02ZM897.68,322.38h15.61l-7.63-23.01h-.24l-7.75,23.01Z"/>
    <path class="cls-1" d="M958.43,338.69l-23.18-35.57h-.24v35.57h-4.81v-44.02h5.28l23.13,35.57h.23v-35.57h4.75v44.02h-5.16Z"/>
    <path class="cls-1" d="M974.05,294.67h24.83v4.23h-20.02v15.38h18.84v4.23h-18.84v15.91h20.31v4.28h-25.12v-44.02Z"/>
    <path class="cls-1" d="M768.41,294.67h24.83v4.23h-20.02v15.38h18.84v4.23h-18.84v15.91h20.31v4.28h-25.12v-44.02Z"/>
    <path class="cls-1" d="M1007.4,329.01c1.64,3.93,5.28,6.22,9.74,6.22,6.28,0,10.57-4.28,10.57-10.74v-25.59h-20.84v-4.23h25.65v29.41c0,9.33-6.22,15.55-15.38,15.55-6.46,0-11.15-3.11-13.56-8.28l3.82-2.35Z"/>
    <path class="cls-1" d="M1052.37,294.67h6.1l15.32,44.02h-5.17l-4.05-12.09h-18.49l-4.05,12.09h-4.99l15.32-44.02ZM1047.56,322.38h15.61l-7.63-23.01h-.24l-7.75,23.01Z"/>
    <path class="cls-1" d="M1099.09,327.54l-13.97-24.77h-.24v35.92h-4.81v-44.02h6.05l15.14,27.18h.24l15.03-27.18h5.81v44.02h-4.81v-35.92h-.24l-13.91,24.77h-4.28Z"/>
    <path class="cls-1" d="M1132.79,294.67h24.83v4.23h-20.02v15.38h18.84v4.23h-18.84v15.91h20.31v4.28h-25.12v-44.02Z"/>
    <path class="cls-1" d="M1193.27,338.69l-23.18-35.57h-.24v35.57h-4.81v-44.02h5.28l23.13,35.57h.23v-35.57h4.76v44.02h-5.17Z"/>
    <path class="cls-1" d="M1216.93,298.9h-12.38v-4.23h29.46v4.23h-12.27v39.8h-4.81v-39.8Z"/>
    <path class="cls-1" d="M1235.27,316.68c0-13.15,9.45-22.95,22.36-22.95s22.36,9.8,22.36,22.95-9.51,22.95-22.36,22.95-22.36-9.8-22.36-22.95ZM1275.07,316.68c0-10.68-7.28-18.61-17.43-18.61s-17.43,7.92-17.43,18.61,7.28,18.55,17.43,18.55,17.43-7.87,17.43-18.55Z"/>
    <path class="cls-1" d="M466.64,410.19v-44.02h14.32c13.62,0,22.54,8.45,22.54,21.95s-8.92,22.07-22.54,22.07h-14.32ZM498.57,388.12c0-11.09-6.87-17.73-17.61-17.73h-9.51v35.51h9.51c10.74,0,17.61-6.69,17.61-17.78Z"/>
    <path class="cls-1" d="M511.57,366.17h24.83v4.23h-20.02v15.38h18.84v4.23h-18.84v15.91h20.31v4.28h-25.12v-44.02Z"/>
    <path class="cls-1" d="M956.16,366.17h25.77v7.28h-17.43v12.62h16.14v7.16h-16.14v16.96h-8.33v-44.02Z"/>
    <path class="cls-1" d="M986.16,388.18c0-13.38,9.33-22.95,22.42-22.95s22.42,9.57,22.42,22.95-9.33,22.95-22.42,22.95-22.42-9.57-22.42-22.95ZM1022.49,388.12c0-9.1-5.52-15.44-13.91-15.44s-13.91,6.34-13.91,15.44,5.52,15.5,13.91,15.5,13.91-6.28,13.91-15.5Z"/>
    <path class="cls-1" d="M1051.04,393.17h-4.34v17.02h-8.33v-44.02h16.79c8.57,0,14.79,5.93,14.79,13.56,0,6.22-4.05,11.15-10.1,12.8l10.8,17.67h-9.45l-10.15-17.02ZM1061.55,379.85c0-3.58-2.76-6.4-7.22-6.4h-7.63v12.85h7.63c4.46,0,7.22-2.99,7.22-6.46Z"/>
    <path class="cls-1" d="M1084.95,373.45h-11.04v-7.28h30.4v7.28h-11.03v36.74h-8.33v-36.74Z"/>
    <path class="cls-1" d="M1116.2,366.17h10.92l13.91,44.02h-8.98l-2.94-9.98h-15.26l-2.94,9.98h-8.63l13.91-44.02ZM1115.96,392.94h11.03l-5.4-18.61h-.24l-5.4,18.61Z"/>
    <path class="cls-1" d="M1146.5,366.17h8.33v36.68h15.85v7.34h-24.18v-44.02Z"/>
    <path class="cls-1" d="M1176.26,366.17h25.71v7.28h-17.37v10.98h16.2v7.1h-16.2v11.33h17.67v7.34h-26v-44.02Z"/>
    <path class="cls-1" d="M1208,366.17h29.88l-18.49,36.68h17.67v7.34h-29.99l18.67-36.74h-17.73v-7.28Z"/>
    <path class="cls-1" d="M1255.17,366.17h10.92l13.91,44.02h-8.98l-2.94-9.98h-15.26l-2.94,9.98h-8.63l13.91-44.02ZM1254.94,392.94h11.03l-5.4-18.61h-.24l-5.4,18.61Z"/>
  </g>
</svg>