<svg width="213" height="51" viewBox="0 0 213 51" fill="none" xmlns="http://www.w3.org/2000/svg">
<g clip-path="url(#clip0_205_798)">
<path d="M77.5756 18.1996H72.5819V21.1339H78.0801V22.7849C78.0801 24.036 77.0775 25.0486 75.8387 25.0486H72.5819V29.3244C72.5819 30.5626 71.5857 31.5687 70.3596 31.5687H67.3008V16.8517C67.3008 15.2071 68.6227 13.8722 70.251 13.8722H79.817V15.9294C79.817 17.1806 78.8145 18.1931 77.5756 18.1931V18.1996Z" fill="#C2ACFF"/>
<path d="M96.6837 29.3244C94.985 30.9753 92.7372 31.8008 89.953 31.8008C87.1688 31.8008 84.9209 30.9753 83.2223 29.3244C81.5173 27.6734 80.668 25.4742 80.668 22.7269C80.668 19.9795 81.5237 17.8642 83.2351 16.1681C84.9465 14.4719 87.1879 13.6271 89.953 13.6271C92.7181 13.6271 94.9595 14.4719 96.6709 16.1681C98.3823 17.8642 99.238 20.044 99.238 22.7269C99.238 25.4097 98.3887 27.6734 96.6837 29.3244ZM92.9033 19.4765C92.137 18.6058 91.1535 18.1738 89.9466 18.1738C88.7397 18.1738 87.7626 18.6058 86.99 19.4765C86.2237 20.3471 85.8405 21.4241 85.8405 22.7269C85.8405 24.0941 86.2173 25.1904 86.9644 26.0224C87.7179 26.8543 88.7078 27.2735 89.9402 27.2735C91.1727 27.2735 92.1433 26.8543 92.9033 26.0095C93.6632 25.1646 94.0399 24.0683 94.0399 22.7204C94.0399 21.3725 93.6568 20.3407 92.8905 19.47L92.9033 19.4765Z" fill="#C2ACFF"/>
<path d="M100.866 16.6131C100.866 15.104 102.079 13.8786 103.573 13.8786H107.648C109.87 13.8786 111.517 14.3881 112.603 15.4071C113.689 16.426 114.231 17.8384 114.231 19.6377C114.231 20.5986 113.982 21.508 113.478 22.3657C112.98 23.2235 112.309 23.8039 111.479 24.107C111.881 24.2618 112.252 24.6036 112.603 25.1453L113.478 26.5061C113.88 27.1445 114.729 27.4993 116.032 27.5702L114.978 31.7944C113.593 31.7944 112.507 31.6138 111.722 31.2527C110.936 30.8915 110.33 30.3562 109.895 29.6468L107.916 26.4093C107.584 25.8354 107.066 25.5516 106.364 25.5516H106.013V29.3244C106.013 30.5626 105.017 31.5687 103.79 31.5687H100.859V16.6131H100.866ZM107.296 22.1206C108.031 22.1206 108.586 21.9207 108.963 21.5144C109.34 21.1081 109.525 20.5857 109.525 19.9473C109.525 19.3604 109.34 18.8509 108.976 18.4317C108.612 18.0125 108.043 17.7997 107.277 17.7997H106.051V22.1206H107.303H107.296Z" fill="#C2ACFF"/>
<path d="M130.047 18.2254H125.443V29.3244C125.443 30.5626 124.447 31.5687 123.221 31.5687H120.315V18.2254H115.711V15.7747C115.711 14.7235 116.554 13.8786 117.588 13.8786H128.17C129.211 13.8786 130.047 14.7299 130.047 15.7747V18.2254Z" fill="#C2ACFF"/>
<path d="M134.626 28.6408L134.185 29.9048C133.834 30.9044 132.902 31.5751 131.848 31.5751H128.195L134.453 16.1616C135.015 14.7815 136.344 13.8786 137.819 13.8786C139.294 13.8786 140.622 14.7815 141.184 16.1616L147.442 31.5751H143.374C142.314 31.5751 141.376 30.898 141.031 29.8854L140.603 28.6408H134.619H134.626ZM138.132 21.6112L137.583 19.4894L137.033 21.637L135.858 25.0744H139.339L138.138 21.6112H138.132Z" fill="#C2ACFF"/>
<path d="M160.132 31.5687H151.619C150.348 31.5687 149.32 30.5304 149.32 29.247V13.8786H154.352V27.022H157.928C159.148 27.022 160.132 28.0152 160.132 29.247V31.5687Z" fill="#C2ACFF"/>
<path d="M173.287 31.5687H162.297V16.8581C162.297 15.2136 163.619 13.8786 165.247 13.8786H175.311V15.9939C175.311 17.2128 174.334 18.1996 173.127 18.1996H167.578V20.676H173.191V22.0497C173.191 23.3847 172.118 24.4681 170.796 24.4681H167.578V27.2735H175.509V29.3244C175.509 30.5626 174.513 31.5687 173.287 31.5687Z" fill="#C2ACFF"/>
<path d="M191.884 31.5687H177.395V28.299C177.395 27.4735 177.701 26.6867 178.257 26.0804L185.281 18.3995H180.753C179.036 18.3995 177.65 16.9936 177.65 15.2652V13.8786H191.737V17.1806C191.737 17.9996 191.431 18.7864 190.888 19.3927L183.934 27.0478H189.202C190.69 27.0478 191.89 28.2667 191.89 29.7629V31.5687H191.884Z" fill="#C2ACFF"/>
<path d="M200.188 28.6408L199.748 29.9048C199.397 30.9044 198.464 31.5751 197.411 31.5751H193.758L200.016 16.1616C200.578 14.7815 201.906 13.8786 203.381 13.8786C204.856 13.8786 206.185 14.7815 206.747 16.1616L213.005 31.5751H208.937C207.877 31.5751 206.938 30.898 206.593 29.8854L206.166 28.6408H200.182H200.188ZM203.694 21.6112L203.145 19.4894L202.596 21.637L201.421 25.0744H204.901L203.701 21.6112H203.694Z" fill="#C2ACFF"/>
<path d="M92.4722 43.7769C91.8911 44.3509 91.0418 44.6411 89.9307 44.6411H88.6854V47.7045H86.9102V38.3403H89.9179C91.029 38.3403 91.8783 38.6176 92.4658 39.1787C93.0533 39.7333 93.3471 40.4943 93.3471 41.4617C93.3471 42.4291 93.0533 43.2094 92.4722 43.7834V43.7769ZM91.1504 40.3847C90.8694 40.0751 90.4671 39.9139 89.9243 39.9139H88.679V43.0417H89.9243C90.4735 43.0417 90.8822 42.8934 91.1567 42.5967C91.4313 42.3001 91.5654 41.9196 91.5654 41.4681C91.5654 41.0554 91.425 40.6942 91.1504 40.3847Z" fill="#C2ACFF"/>
<path d="M104.223 45.86C104.377 46.1373 104.702 46.2857 105.22 46.3179L104.926 47.8399C103.917 47.8399 103.214 47.4852 102.806 46.7694L101.829 45.0732C101.663 44.7701 101.49 44.5637 101.318 44.4606C101.145 44.3509 100.852 44.2993 100.437 44.2993H99.83V47.7109H98.0547V38.3467H101.037C102.122 38.3467 102.953 38.5983 103.521 39.0948C104.089 39.5914 104.377 40.2944 104.377 41.1973C104.377 41.7584 104.204 42.2678 103.859 42.7193C103.515 43.1772 103.08 43.4609 102.563 43.577C102.857 43.6544 103.131 43.9124 103.387 44.338L104.236 45.86H104.223ZM102.212 40.2492C101.95 39.9977 101.554 39.8752 101.011 39.8752H99.8172V42.7386H100.928C101.465 42.7386 101.88 42.6032 102.167 42.3259C102.455 42.0486 102.595 41.7003 102.595 41.2682C102.595 40.8361 102.467 40.5008 102.205 40.2492H102.212Z" fill="#C2ACFF"/>
<path d="M115.852 47.7045H109.785V38.3403H115.743V39.9332H111.56V42.1259H115.628V43.7189H111.56V46.1115H115.852V47.7045Z" fill="#C2ACFF"/>
<path d="M126.776 39.9332H122.791V42.1259H126.629V43.7189H122.791V47.7045H121.016V38.3403H126.776V39.9332Z" fill="#C2ACFF"/>
<path d="M138.008 47.7045H131.941V38.3403H137.899V39.9332H133.717V42.1259H137.784V43.7189H133.717V46.1115H138.008V47.7045Z" fill="#C2ACFF"/>
<path d="M144.977 47.7045H143.176V38.3403H144.977V47.7045Z" fill="#C2ACFF"/>
<path d="M156.358 39.9332H153.855V47.7045H152.054V39.9332H149.551V38.3403H156.358V39.9332Z" fill="#C2ACFF"/>
<path d="M162.594 43.9704C162.594 44.6992 162.785 45.2602 163.162 45.6536C163.539 46.047 164.018 46.2405 164.593 46.2405C165.167 46.2405 165.646 46.047 166.029 45.6536C166.413 45.2602 166.604 44.6992 166.604 43.9704V38.3403H168.405V44.2542C168.405 45.2731 168.035 46.1244 167.294 46.808C166.553 47.4917 165.653 47.8399 164.593 47.8399C163.532 47.8399 162.632 47.4981 161.898 46.808C161.163 46.1244 160.793 45.2667 160.793 44.2542V38.3403H162.594V43.9704Z" fill="#C2ACFF"/>
<path d="M179.884 45.86C180.037 46.1373 180.363 46.2857 180.88 46.3179L180.586 47.8399C179.577 47.8399 178.875 47.4852 178.466 46.7694L177.489 45.0732C177.323 44.7701 177.15 44.5637 176.978 44.4606C176.806 44.3509 176.512 44.2993 176.097 44.2993H175.49V47.7109H173.715V38.3467H176.697C177.783 38.3467 178.613 38.5983 179.181 39.0948C179.749 39.5914 180.037 40.2944 180.037 41.1973C180.037 41.7584 179.864 42.2678 179.52 42.7193C179.175 43.1772 178.741 43.4609 178.223 43.577C178.517 43.6544 178.792 43.9124 179.047 44.338L179.896 45.86H179.884ZM177.878 40.2492C177.617 39.9977 177.221 39.8752 176.678 39.8752H175.484V42.7386H176.595C177.131 42.7386 177.546 42.6032 177.834 42.3259C178.121 42.0486 178.262 41.7003 178.262 41.2682C178.262 40.8361 178.134 40.5008 177.872 40.2492H177.878Z" fill="#C2ACFF"/>
<path d="M187.25 45.4021L186.458 47.7045H184.594L188.048 38.3403H189.945L193.4 47.7045H191.535L190.743 45.4021H187.263H187.25ZM189.358 41.3907L188.987 40.0235L188.617 41.3907L187.755 43.8801H190.22L189.358 41.3907Z" fill="#C2ACFF"/>
<path d="M18.1166 42.5709L16.9543 42.9966L16.7308 42.3904L18.0591 41.9002L17.8867 41.4359L16.0156 42.1259L16.9799 44.7701L17.5291 44.5702L17.1204 43.4609L18.2826 43.0288L18.1166 42.5709Z" fill="#C2ACFF"/>
<path d="M20.8701 40.8232C20.6083 40.6684 20.2826 40.6426 19.8995 40.7458C19.5163 40.8555 19.2481 41.036 19.1012 41.3069C18.8969 41.6294 18.8586 42.0421 18.9927 42.5451C19.1268 43.0353 19.3567 43.3706 19.7079 43.5512C19.9633 43.706 20.289 43.7318 20.6721 43.6286C21.0617 43.5254 21.3235 43.3319 21.4704 43.0675C21.6747 42.7322 21.7067 42.3194 21.5789 41.8293C21.4448 41.3327 21.2086 40.9973 20.8701 40.8232ZM21.0106 42.7515C20.9212 42.9514 20.7679 43.0869 20.5444 43.1449C20.3209 43.203 20.1166 43.1707 19.9442 43.0417C19.7654 42.9127 19.6376 42.6935 19.5546 42.3839C19.4716 42.0744 19.478 41.8228 19.561 41.6165C19.6504 41.4165 19.8037 41.2811 20.0272 41.2231C20.2507 41.165 20.4486 41.1973 20.6274 41.3327C20.7999 41.4617 20.934 41.681 21.017 41.9841C21.1 42.2872 21.0936 42.5451 21.017 42.7451L21.0106 42.7515Z" fill="#C2ACFF"/>
<path d="M24.7514 42.4226C24.7322 42.3775 24.7131 42.2936 24.6875 42.1646L24.6556 41.9776C24.6237 41.7777 24.5662 41.6423 24.496 41.5584C24.4257 41.4746 24.3235 41.4165 24.1894 41.3907C24.3299 41.3069 24.4257 41.1973 24.464 41.0554C24.5087 40.9135 24.5151 40.7845 24.4896 40.6491C24.4704 40.5395 24.4321 40.4492 24.3874 40.3653C24.3363 40.2879 24.2724 40.217 24.2086 40.159C24.1192 40.088 24.0234 40.0364 23.9148 40.0106C23.8063 39.9848 23.653 39.9913 23.4678 40.0235L22.1523 40.2686L22.6632 43.0417L23.2252 42.9385L23.0208 41.8486L23.5828 41.7454C23.7424 41.7132 23.8574 41.7196 23.9276 41.7712C23.9979 41.8228 24.0489 41.9325 24.0809 42.1066L24.132 42.3646C24.1447 42.4484 24.1703 42.5193 24.1958 42.5967C24.2086 42.629 24.2341 42.6806 24.2597 42.7386L24.8919 42.6161L24.8791 42.5516C24.8216 42.5258 24.7769 42.4807 24.745 42.4162L24.7514 42.4226ZM23.8191 41.1844C23.7616 41.2295 23.6722 41.2618 23.5508 41.2811L22.9314 41.3972L22.7973 40.6491L23.4295 40.533C23.5508 40.5137 23.6402 40.5137 23.7041 40.533C23.8191 40.5717 23.8957 40.6749 23.9212 40.8426C23.9532 40.9973 23.9212 41.1134 23.8127 41.1844H23.8191Z" fill="#C2ACFF"/>
<path d="M27.3494 39.4882L25.1016 39.7462L25.159 40.2428L25.9892 40.1461L26.2574 42.4549L26.8385 42.3904L26.5767 40.0816L27.4005 39.9848L27.3494 39.4882Z" fill="#C2ACFF"/>
<path d="M28.6399 39.4064L28.0664 39.4441L28.2479 42.2564L28.8215 42.2187L28.6399 39.4064Z" fill="#C2ACFF"/>
<path d="M29.3867 39.3528L29.3931 39.8558L30.2297 39.8429L30.2552 42.1646L30.8427 42.1582L30.8171 39.8365L31.6537 39.8236L31.6409 39.327L29.3867 39.3528Z" fill="#C2ACFF"/>
<path d="M34.0045 41.1844C33.9917 41.3778 33.9598 41.5197 33.9087 41.6036C33.8321 41.7583 33.6724 41.8293 33.4362 41.8164C33.1999 41.8035 33.053 41.7132 32.9892 41.552C32.9508 41.4617 32.9317 41.3198 32.9508 41.1263L33.053 39.3979L32.4591 39.3593L32.357 41.0876C32.3378 41.3907 32.3697 41.6229 32.4527 41.797C32.606 42.113 32.9253 42.2872 33.4042 42.313C33.8896 42.3452 34.2216 42.2098 34.4132 41.9131C34.5154 41.7519 34.5728 41.5262 34.592 41.2231L34.7006 39.4947L34.1131 39.456L34.0045 41.1844Z" fill="#C2ACFF"/>
<path d="M37.7537 40.3008C37.6579 40.1138 37.5174 39.9719 37.3322 39.8816C37.2237 39.8301 37.0832 39.7849 36.9171 39.7591L35.723 39.5914L35.3398 42.3839L36.5276 42.5516C36.9491 42.6096 37.2811 42.4807 37.5238 42.1582C37.709 41.9196 37.8239 41.6165 37.875 41.2424C37.8942 41.1005 37.9006 40.9393 37.8878 40.7716C37.875 40.604 37.8303 40.4492 37.7537 40.2944V40.3008ZM37.2875 41.2102C37.2556 41.4165 37.2045 41.5907 37.1279 41.7326C36.981 41.9905 36.7703 42.1002 36.5021 42.0615L35.9657 41.9841L36.2211 40.159L36.7511 40.2363C37.0129 40.275 37.179 40.3718 37.2492 40.5395C37.3195 40.7071 37.3322 40.9264 37.2939 41.2166L37.2875 41.2102Z" fill="#C2ACFF"/>
<path d="M38.3281 42.8547L38.8965 42.9708L39.4393 40.2041L38.8709 40.088L38.3281 42.8547Z" fill="#C2ACFF"/>
<path d="M41.5791 42.7386L40.998 40.5524L40.4105 40.3976L39.6953 43.132L40.2253 43.2675L40.7298 41.3327L41.3237 43.5577L41.8857 43.706L42.5945 40.9845L42.0708 40.8426L41.5791 42.7386Z" fill="#C2ACFF"/>
<path d="M42.6562 43.9575L44.6486 44.6992L44.8211 44.2219L43.3715 43.6802L43.6141 42.9966L44.8913 43.4738L45.0573 43.0159L43.7865 42.5387L43.9909 41.9776L45.3766 42.4936L45.549 42.0228L43.6205 41.3134L42.6562 43.9575Z" fill="#C2ACFF"/>
<path d="M19.3294 4.89492L42.9443 4.92072L43.4615 3.5277L43.5062 3.42451V2.61192C43.5062 2.37975 43.5062 2.14758 43.5062 1.91541V1.53491L43.2061 1.45752C42.3184 1.2318 41.4244 1.02542 40.5304 0.838397L40.0962 0.748109L38.174 1.84447V1.56715C38.174 1.32853 38.174 1.08991 38.174 0.851296V0.4321L37.842 0.393405C36.9543 0.283769 36.0603 0.187032 35.1663 0.116091L34.7767 0.083845V0.0967433L33.6018 1.48976L32.8482 1.46397C32.8482 1.37368 32.8482 1.28339 32.8482 1.1931V0.00645503H32.4842C31.5902 -0.0064433 30.7026 5.8678e-06 29.8149 0.00645503H29.451V0.470795V1.206C29.451 1.29629 29.451 1.38658 29.451 1.48331L28.7102 1.50911L27.5288 0.0967433L27.1329 0.128989C26.2389 0.19993 25.3449 0.290218 24.4572 0.399854L24.1188 0.444998V0.864194C24.1188 1.10926 24.1188 1.34143 24.1188 1.5865V1.84447L22.1966 0.754558L21.7688 0.844846C20.8748 1.02542 19.9807 1.22535 19.0931 1.44462L18.793 1.51556V1.89606V2.59257C18.793 2.82474 18.793 3.05691 18.793 3.28908V3.39872L18.8313 3.5019L19.3358 4.90137L19.3294 4.89492ZM19.1506 2.55388C19.1506 2.32171 19.1506 2.08954 19.1506 1.85737C20.0382 1.63809 20.9258 1.43817 21.8135 1.25759C21.8135 1.49621 21.8135 1.72838 21.8135 1.967C21.8135 2.20562 21.8135 2.43779 21.8135 2.67641C22.7011 2.52163 23.5887 2.3862 24.4764 2.26366C24.4764 2.02504 24.4764 1.78642 24.4764 1.54781C24.4764 1.30274 24.4764 1.06412 24.4764 0.825499C25.364 0.715863 26.2516 0.625575 27.1393 0.554634C27.1393 0.799702 27.1393 1.03832 27.1393 1.28339C27.1393 1.52846 27.1393 1.76708 27.1393 2.01215C28.0205 1.96055 28.9145 1.92186 29.8022 1.90251C29.8022 1.65744 29.8022 1.41237 29.8022 1.1673V0.438549C30.6898 0.425651 31.5774 0.425651 32.4651 0.438549V1.1673C32.4651 1.41237 32.4651 1.65099 32.4651 1.89606C33.3527 1.91541 34.2403 1.94765 35.128 1.99925V1.27694C35.128 1.03187 35.128 0.793253 35.128 0.554634C36.0156 0.625575 36.9032 0.715863 37.7909 0.825499C37.7909 1.06412 37.7909 1.30274 37.7909 1.54136V2.25721C38.6785 2.37975 39.5598 2.52163 40.4538 2.68286C40.4538 2.44424 40.4538 2.21207 40.4538 1.97345C40.4538 1.73483 40.4538 1.50266 40.4538 1.27049C41.3414 1.45752 42.229 1.66389 43.1167 1.88961C43.1167 2.12178 43.1167 2.35395 43.1167 2.58612V3.27618C42.9698 3.64378 42.8101 4.01139 42.6633 4.37254H42.6505C42.593 4.35964 42.5356 4.34674 42.4845 4.33384L42.3951 3.21814C42.3951 3.21814 42.2674 2.84409 41.897 2.83764C41.5202 2.83764 41.3925 3.21814 41.3925 3.21814L41.3159 4.10812C39.9301 3.85661 38.5508 3.65023 37.1587 3.489L37.0693 2.39265C37.0693 2.39265 36.9416 2.01215 36.5712 2.01215C36.1944 2.01215 36.0667 2.39265 36.0667 2.39265L35.9837 3.36647C34.5469 3.23104 33.1037 3.1472 31.6541 3.12785L31.5838 2.26366C31.5838 2.26366 31.4561 1.88316 31.0793 1.88316C30.7026 1.88316 30.5749 2.25721 30.5749 2.25721L30.5046 3.11495C29.0806 3.12785 27.6565 3.19879 26.2389 3.32133L26.1686 2.49583C26.1686 2.49583 26.0409 2.11533 25.6705 2.11533C25.3001 2.11533 25.166 2.49583 25.166 2.49583L25.0894 3.43741C23.7612 3.57929 22.4393 3.77277 21.1174 4.00494L21.0472 3.1343C21.0472 3.1343 20.9195 2.76025 20.5491 2.76025C20.1787 2.76025 20.0446 3.1343 20.0446 3.1343L19.9552 4.21776C19.8339 4.24356 19.7125 4.2629 19.5912 4.2887H19.5848C19.4379 3.94045 19.2975 3.58574 19.1506 3.22459C19.1506 2.99242 19.1506 2.76025 19.1506 2.52808V2.55388Z" fill="#C2ACFF"/>
<path d="M6.37387 24.5326C7.01884 25.1582 7.61273 25.0099 8.2577 24.8357C7.18488 24.3585 6.75703 23.3266 6.32279 22.2819C5.96518 21.4177 5.60119 20.5406 4.84766 19.986C5.24996 20.6889 5.39045 21.5015 5.51817 22.2754C5.67143 23.1719 5.81831 24.0167 6.37387 24.5262V24.5326Z" fill="#C2ACFF"/>
<path d="M3.36029 27.022C3.64766 28.1055 4.17768 28.8149 4.74602 29.2986C5.21219 29.692 5.71667 29.9435 6.13814 30.1176V30.0854C6.11259 29.9628 6.08705 29.8274 6.06151 29.6984C5.92102 29.0212 5.7039 28.2925 5.56341 27.9313C5.31436 27.3058 4.9376 26.6995 4.54806 26.0804C3.96056 25.1388 3.36029 24.1779 3.16872 23.088C3.15595 23.1267 3.14318 23.1654 3.1304 23.2041C3.06655 23.3976 3.02823 23.6039 3.00269 23.8232C2.86858 24.9583 3.16233 26.319 3.35391 27.0156L3.36029 27.022Z" fill="#C2ACFF"/>
<path d="M8.96484 25.7322C9.4821 25.7902 9.95465 25.7322 10.3889 25.6032C11.2574 25.3323 11.9598 24.7261 12.4771 23.9844C13.0007 23.2363 13.3328 22.3593 13.4733 21.566C13.5307 21.2113 13.5499 20.8759 13.5307 20.5793C13.0135 21.5467 12.1578 22.1916 11.3148 22.8365C10.2739 23.6233 9.25221 24.4036 8.97123 25.7386L8.96484 25.7322Z" fill="#C2ACFF"/>
<path d="M10.0433 28.5634C9.41748 28.9052 8.79806 29.2341 8.2808 29.6533C7.98705 29.8854 7.44426 30.4272 6.99086 30.9431C6.90146 31.0463 6.81844 31.143 6.74181 31.2398L6.72266 31.2656C7.74439 31.3687 9.28977 31.401 10.701 29.937C11.2055 29.4146 12.1059 28.3634 12.5338 27.3058C12.6168 27.1058 12.6807 26.8995 12.719 26.706C12.7254 26.6673 12.7317 26.6351 12.7381 26.5964C12.0485 27.4863 11.0459 28.0281 10.0561 28.5634H10.0433Z" fill="#C2ACFF"/>
<path d="M1.48108 32.8972C1.48108 32.8972 1.48108 32.9036 1.48108 32.9101C1.9217 33.7936 2.43257 34.3289 3.07115 34.6449C3.65227 34.9351 4.34832 35.0448 5.19764 35.0706C3.79914 34.3225 3.20526 32.9488 2.60499 31.5558C2.10689 30.4143 1.60879 29.2534 0.644531 28.4537C1.066 29.3566 1.05323 30.0402 1.04045 30.7045C1.03407 31.3752 1.02768 32.033 1.47469 32.8972H1.48108Z" fill="#C2ACFF"/>
<path d="M9.20994 33.4518C8.65437 33.8065 8.10519 34.1548 7.67734 34.5546V34.5611C7.42191 34.7868 6.95574 35.3027 6.57259 35.8122C6.49596 35.909 6.42571 36.0121 6.35547 36.1024C6.77055 36.1282 7.27503 36.1218 7.80506 35.9863C8.46919 35.8187 9.17801 35.4446 9.83576 34.6707C10.2572 34.1806 11.0235 33.1487 11.3556 32.162C11.4194 31.975 11.4641 31.7879 11.4897 31.6074C11.4897 31.5945 11.4897 31.5816 11.4897 31.5687C10.9214 32.3748 10.0593 32.9165 9.22272 33.4454L9.20994 33.4518Z" fill="#C2ACFF"/>
<path d="M6.17053 40.275C4.6954 39.9977 3.71198 38.9336 2.71579 37.8437C1.91756 36.9731 1.10655 36.0895 0.0273438 35.6252C0.621228 36.2959 0.825575 36.9086 1.01715 37.5213C1.22788 38.1597 1.42584 38.7788 2.10913 39.4367C2.84989 40.1138 3.51402 40.4492 4.22285 40.5266C4.81673 40.5975 5.44254 40.4879 6.17692 40.275H6.17053Z" fill="#C2ACFF"/>
<path d="M48.9925 15.6715C48.9606 15.6521 48.9223 15.6328 48.7754 15.6908C48.6796 15.7231 48.6221 15.8327 48.6094 15.9875C48.6094 16.0133 48.6094 16.0391 48.6094 16.0649C48.6285 16.0649 48.6541 16.0649 48.6796 16.0649C48.8265 16.0649 48.9861 16.11 49.1522 16.181C49.1649 15.9875 49.216 15.8134 49.299 15.6715C49.2927 15.6779 49.2799 15.6844 49.2671 15.6908H49.2543L49.2352 15.7037C49.1075 15.7424 49.05 15.7037 48.9798 15.6715H48.9925Z" fill="#C2ACFF"/>
<path d="M51.5226 16.2196C51.6759 16.1552 51.8164 16.1294 51.9377 16.1294V16.1165C51.9505 16.0778 51.9505 16.0326 51.9505 15.9939C51.9569 15.8198 51.9122 15.6844 51.7972 15.6263C51.644 15.5489 51.5929 15.5618 51.5546 15.5683C51.5099 15.5812 51.4715 15.5941 51.4141 15.5876C51.4715 15.7295 51.5098 15.9101 51.5162 16.1036C51.5162 16.1423 51.5162 16.1745 51.5162 16.2132L51.5226 16.2196Z" fill="#C2ACFF"/>
<path d="M48.6794 18.0512C49.1583 18.1931 49.7139 18.0383 50.0268 17.9351C49.8224 17.7288 49.3563 17.2128 49.203 16.555C49.1902 16.5486 49.1838 16.5421 49.1647 16.5357C48.9859 16.4325 48.8135 16.3809 48.6794 16.3744C48.5708 16.3744 48.4814 16.4067 48.4367 16.4776C48.4367 16.4776 48.4367 16.4776 48.4303 16.4841C48.3792 16.6066 48.392 16.6453 48.4048 16.6775C48.4303 16.7485 48.4495 16.813 48.392 16.9355V16.9484C48.3281 17.0516 48.2579 17.0709 48.1813 17.0903C48.1557 17.0903 48.1302 17.0967 48.0983 17.1935V17.2064C48.0983 17.2064 48.0983 17.2193 48.0855 17.2322C48.0536 17.3354 48.0727 17.4772 48.1366 17.6191C48.2132 17.7675 48.3473 17.9029 48.5453 17.9932C48.5772 18.0061 48.6155 18.019 48.6474 18.0319C48.6474 18.0319 48.6602 18.0319 48.6794 18.0383V18.0512Z" fill="#C2ACFF"/>
<path d="M56.0987 29.8016C56.0604 30.1047 56.1115 30.4143 56.2073 30.698C56.2264 30.7238 56.2456 30.7496 56.2648 30.7754C56.2648 30.7754 56.2775 30.7883 56.2775 30.7948C56.2775 30.7561 56.2775 30.7174 56.2839 30.6787C56.3159 30.4014 56.5521 30.3175 56.6735 30.3304C56.7692 30.3498 56.9289 30.4272 57.0183 30.4465C57.1013 30.4852 57.1332 30.5561 57.1332 30.6529C57.3312 30.5239 57.5228 30.4207 57.676 30.3627C57.791 30.1498 57.8932 29.8596 57.8612 29.6146C57.8485 29.5243 57.8165 29.4469 57.7591 29.4146C57.7463 29.4146 57.7399 29.4082 57.7271 29.4017C57.5547 29.3308 57.5164 29.3502 57.4845 29.3695C57.4206 29.4017 57.3695 29.4275 57.2546 29.3953C57.1269 29.3566 57.0949 29.2921 57.0502 29.2147C57.0311 29.176 57.0055 29.1309 56.8906 29.0986C56.8778 29.0986 56.865 29.0922 56.8523 29.0922C56.7373 29.0793 56.5904 29.118 56.45 29.2083C56.3095 29.305 56.1817 29.4533 56.1243 29.6597C56.1243 29.6597 56.0923 29.7822 56.0987 29.7887V29.8016Z" fill="#C2ACFF"/>
<path d="M57.2817 30.9495C57.3711 30.9882 57.4349 31.0527 57.4541 31.1108C57.4605 31.2011 57.486 31.3881 57.5179 31.4719C57.5371 31.6267 57.3391 31.7363 57.0645 31.7363C57.0326 31.7363 57.0007 31.7363 56.9688 31.7234C57.2689 31.9169 57.6201 32.091 57.933 32.091C58.016 32.091 58.099 32.0846 58.1821 32.0652C58.3673 32.033 58.5269 31.9556 58.6291 31.8653C58.7185 31.7815 58.7759 31.6912 58.7759 31.6009C58.7759 31.588 58.7759 31.5751 58.7759 31.5558C58.7504 31.4268 58.7121 31.3945 58.6865 31.3752C58.6163 31.3236 58.5588 31.2784 58.5461 31.1366C58.5333 31.0076 58.578 30.956 58.6291 30.8979C58.6418 30.8786 58.661 30.8593 58.6291 30.7625V30.7496C58.5971 30.6658 58.5333 30.6077 58.4247 30.5819C58.3034 30.5561 58.1437 30.5626 57.9394 30.6142C57.7031 30.698 57.4796 30.8206 57.2817 30.9495Z" fill="#C2ACFF"/>
<path d="M57.7283 33.0649C57.7283 32.9165 57.6836 32.736 57.5878 32.5489C57.5623 32.4974 57.5367 32.4458 57.5048 32.3942C57.4792 32.3619 57.4537 32.3232 57.4218 32.291C57.3004 32.2458 57.1727 32.1813 57.0514 32.1169C57.0514 32.2136 57.0259 32.291 56.9684 32.3297C56.879 32.3684 56.7385 32.4393 56.6491 32.4845C56.5341 32.5296 56.3234 32.4587 56.2595 32.2136C56.1893 32.5038 56.1446 32.8392 56.2021 33.1552C56.2149 33.2261 56.2404 33.2906 56.2595 33.3551C56.3298 33.5099 56.432 33.6131 56.5405 33.6776C56.6427 33.7356 56.7449 33.7485 56.8279 33.7356C56.8407 33.7356 56.8598 33.7356 56.8726 33.7227C56.9875 33.6711 57.0067 33.626 57.0195 33.5937C57.045 33.5163 57.0706 33.4583 57.1727 33.4131C57.2749 33.3615 57.3324 33.3744 57.4026 33.3938C57.4282 33.4002 57.4665 33.4067 57.5814 33.3422C57.5814 33.3422 57.5942 33.3422 57.6006 33.3293C57.6772 33.2842 57.7155 33.1939 57.7155 33.0713L57.7283 33.0649Z" fill="#C2ACFF"/>
<path d="M50.6216 26.3964C50.3151 26.3642 49.9958 26.3964 49.7212 26.4803C49.5807 26.5319 49.453 26.5899 49.3444 26.6609C49.2103 26.7511 49.1018 26.8414 49.0443 26.9382C48.9996 27.0091 48.9804 27.0801 48.9996 27.1316C48.9996 27.1445 48.9996 27.151 49.0124 27.1574C49.0954 27.3058 49.1465 27.3187 49.1848 27.3251C49.255 27.3445 49.3125 27.3574 49.37 27.4541V27.467C49.4274 27.5831 49.4147 27.6476 49.3955 27.725C49.3891 27.7572 49.3827 27.7895 49.4338 27.8604L49.4849 27.9636C49.4849 27.9636 49.453 27.8862 49.4594 27.8926C49.536 27.9765 49.6637 28.0474 49.8234 28.0668C49.9894 28.0861 50.1746 28.0539 50.3534 27.9313C50.3789 27.9184 50.4045 27.8926 50.43 27.8669H50.4364C50.6407 27.6798 50.7876 27.4412 50.8962 27.2026C50.8962 27.1897 50.9026 27.1703 50.909 27.1574C50.7429 27.2284 50.5641 27.1703 50.5003 27.0801C50.4364 27.0285 50.3534 26.8479 50.3215 26.764C50.2512 26.6544 50.3725 26.4932 50.6216 26.4029V26.3964Z" fill="#C2ACFF"/>
<path d="M51.4958 28.6343C51.5979 28.6923 51.7001 28.7117 51.7831 28.6923C51.8023 28.6923 51.8151 28.6859 51.8278 28.673C51.9428 28.6214 51.9555 28.5763 51.9747 28.5376C52.0002 28.4666 52.0258 28.4021 52.128 28.357C52.2301 28.3054 52.294 28.3247 52.3578 28.3376C52.3834 28.3376 52.4153 28.3505 52.5366 28.2925C52.5366 28.2925 52.5494 28.2796 52.5558 28.2796C52.6324 28.2344 52.6644 28.1377 52.6708 28.0216C52.6708 27.8733 52.6261 27.6927 52.5303 27.5057C52.5047 27.4541 52.4792 27.4025 52.4472 27.3509C52.4217 27.3122 52.3962 27.28 52.3642 27.2477C52.2429 27.2026 52.1152 27.1445 52.0002 27.08C52.0002 27.1768 51.9747 27.2542 51.9172 27.2864C51.8278 27.3251 51.6873 27.4025 51.5979 27.4412C51.483 27.4799 51.2786 27.4154 51.2148 27.1703C51.1445 27.4605 51.0998 27.7959 51.1509 28.1119C51.1637 28.1829 51.1892 28.2473 51.2084 28.3054C51.2786 28.4602 51.3808 28.5634 51.4894 28.6278L51.4958 28.6343Z" fill="#C2ACFF"/>
<path d="M60.7741 37.1665C60.3782 36.986 59.7141 36.6764 59.4714 36.3991C59.2798 36.1863 58.9542 36.1347 58.6604 36.1798C58.6093 36.1863 58.5582 36.1992 58.5199 36.2121C58.488 36.225 58.4625 36.2379 58.4369 36.2508C58.3347 36.3346 58.2517 36.3281 58.1879 36.2443C58.1176 36.154 58.1559 36.0895 58.2198 35.9734C58.3284 35.7864 58.5966 35.335 58.4241 35.0061C58.1815 34.5159 58.2517 34.0967 58.2964 33.8323C58.2964 33.8001 58.3092 33.7678 58.3092 33.742C57.9197 33.8001 57.479 34.0129 57.064 34.3096C56.7447 34.5417 56.4509 34.8255 56.2146 35.135C56.2593 34.1419 56.1955 33.1423 56.0294 32.1491C56.0039 32.1684 55.9784 32.1813 55.9528 32.1942C55.9528 32.1942 55.9464 32.1942 55.94 32.1942C55.9209 32.2007 55.9017 32.2071 55.8826 32.2136C55.8762 32.2136 55.8634 32.2136 55.857 32.2136C55.8443 32.2136 55.8251 32.2136 55.8123 32.2136C55.8059 32.2136 55.7932 32.2136 55.7868 32.2136C55.7676 32.2136 55.7485 32.2136 55.7357 32.2136C55.6527 32.2007 55.5888 32.162 55.5569 32.1104C55.493 32.0523 55.41 31.8782 55.3717 31.7944C55.3015 31.6847 55.4292 31.5235 55.6718 31.4332C55.3653 31.401 55.046 31.4332 54.765 31.5171C54.7331 31.53 54.6948 31.5429 54.6629 31.5622C54.7076 31.5106 54.7459 31.459 54.7459 31.4139C54.318 31.272 53.903 31.1366 53.507 31.0205C53.0856 30.8979 52.6641 30.7883 52.2426 30.698C52.1788 30.6851 52.1405 30.6206 52.1532 30.5626C52.166 30.4981 52.2299 30.4594 52.2937 30.4723C52.7152 30.5561 53.1367 30.6658 53.5773 30.7948C53.9732 30.9173 54.3819 31.0463 54.797 31.1882C54.797 31.1817 54.797 31.1495 54.7842 31.0914V31.0979C54.8161 31.1237 54.8608 31.143 54.8992 31.1688C55.0971 31.1366 55.3142 31.143 55.5186 31.1559C55.493 31.0914 55.493 31.0269 55.4994 30.9689C55.5122 30.9173 55.5313 30.8657 55.5633 30.8335C55.5633 30.827 55.5697 30.8141 55.5824 30.8077C55.5824 30.8077 55.5824 30.8012 55.5888 30.7948C55.5888 30.7883 55.6016 30.7819 55.608 30.769C55.608 30.769 55.6144 30.7625 55.6208 30.7561C55.6271 30.7496 55.6399 30.7367 55.6463 30.7303C55.6463 30.7303 55.6527 30.7303 55.6591 30.7238C55.6718 30.7109 55.6846 30.698 55.6974 30.6851C55.7357 30.6529 55.7804 30.6206 55.8123 30.5884C55.8187 30.5755 55.8315 30.5755 55.8379 30.569C55.7804 30.3433 55.7549 30.0983 55.774 29.8467C55.7612 29.8274 55.7421 29.8145 55.7293 29.7951C55.5952 29.6533 55.4547 29.5565 55.3334 29.5114C55.1099 28.8729 54.8417 28.2409 54.5352 27.6153C54.4074 27.3509 54.3053 27.1123 54.2223 26.8866C54.1201 26.6157 54.0498 26.3706 53.9987 26.1578C53.9796 26.0933 54.0243 26.0288 54.0881 26.0095C54.152 25.9901 54.2159 26.0353 54.235 26.0998C54.2861 26.3061 54.35 26.5383 54.4521 26.8027C54.5288 27.0156 54.6309 27.2542 54.7587 27.5121C55.0141 27.2284 55.2568 26.9446 55.493 26.6608C55.7612 26.3319 56.0167 25.9966 56.2529 25.6677C56.2976 25.6096 56.3679 25.6032 56.4254 25.6419C56.4828 25.6806 56.4956 25.758 56.4509 25.816C56.2146 26.1514 55.9592 26.4803 55.6846 26.8221C55.4292 27.1316 55.161 27.4412 54.88 27.7572C55.161 27.841 55.41 27.8926 55.6591 27.9184C55.9145 27.9378 56.1699 27.9378 56.4318 27.912C56.4956 27.912 56.5595 27.9571 56.5659 28.0216C56.5722 28.0926 56.5275 28.1506 56.4573 28.1571C56.1763 28.1893 55.9145 28.1893 55.6399 28.1635C55.4419 28.1442 55.2312 28.1055 55.0141 28.0474C55.0269 28.0861 55.0524 28.1248 55.0716 28.17C55.5122 29.0277 56.5595 28.7246 57.3258 28.3312C57.594 28.1957 57.8303 28.041 58.0027 27.9249C58.0346 27.9055 58.0665 27.8797 58.0921 27.8604C58.0921 27.8604 58.0793 27.8539 58.0793 27.8475C58.0091 27.783 57.9133 27.6863 57.8047 27.5315C57.7153 27.4025 57.6195 27.209 57.4854 27.1123C57.3449 27.0027 57.1725 26.9769 57.0384 26.9511C56.9235 26.9317 56.8341 26.9188 56.7638 26.8608C56.6425 26.764 56.6361 26.6479 56.7894 26.4609C57.032 26.1578 57.147 25.6999 57.2236 25.3968C57.2491 25.2743 57.2747 25.1517 57.313 25.0292C57.3641 24.8293 57.4216 24.5778 57.4535 24.3907C57.4726 24.2876 57.3896 24.3778 57.3194 24.4101C56.9937 24.5262 56.5148 24.7067 56.1827 24.739C56.055 24.7519 55.9337 24.7325 55.8059 24.7777C55.576 24.868 55.3589 25.0937 55.2951 25.3001C55.2759 25.4291 55.2184 25.4742 55.1099 25.4613C55.0843 25.4613 55.0588 25.4484 55.046 25.4355C54.9438 25.371 54.9055 25.0679 54.8608 24.9518C54.8161 24.8422 54.7587 24.7325 54.682 24.6487C54.5799 24.5391 54.433 24.5133 54.2989 24.4488C53.9477 24.2811 53.7689 24.0231 53.6475 23.849C53.8838 23.8297 54.1265 23.7845 54.35 23.7265C54.6373 23.6491 54.8928 23.5588 55.078 23.4814C55.1163 23.4621 55.1482 23.4492 55.1801 23.4363C55.1801 23.4363 55.1674 23.4234 55.1674 23.4169C55.1099 23.3395 55.046 23.2299 54.9694 23.0558C54.9055 22.9139 54.8608 22.7075 54.7587 22.585C54.6437 22.4495 54.4841 22.385 54.3564 22.3335C54.2478 22.2883 54.1712 22.2561 54.1137 22.1916C54.0179 22.0755 54.0371 21.9594 54.2223 21.8111C54.516 21.5725 54.7331 21.1597 54.8608 20.8888C54.9183 20.7792 54.9694 20.6696 55.0205 20.5599C55.1163 20.3858 55.2248 20.1536 55.2951 19.9795C55.3334 19.8828 55.2312 19.9537 55.161 19.9666C54.8225 20.0118 54.3308 20.0762 53.9987 20.0376C53.871 20.0247 53.7561 19.9795 53.6284 19.9924C53.3921 20.0247 53.1367 20.1923 53.0345 20.3794C52.9898 20.5019 52.9195 20.5341 52.8174 20.4954C52.7982 20.4825 52.7727 20.4761 52.7599 20.4567C52.6769 20.3665 52.7024 20.0698 52.6833 19.9537C52.6641 19.8441 52.6322 19.7215 52.5747 19.6248C52.4981 19.4958 52.3704 19.4442 52.2554 19.3475C51.9489 19.1024 51.8276 18.8122 51.7509 18.6252C51.7509 18.6058 51.7382 18.5929 51.7318 18.58C51.47 18.8187 51.2337 19.1927 51.074 19.6184C51.0357 19.7151 51.0038 19.8118 50.9719 19.915C51.0166 19.4442 51.0868 18.8638 51.438 18.6639C51.6551 18.5542 51.9297 18.3672 52.1021 18.1544C52.166 18.077 52.2107 17.9996 52.2299 17.9222C52.2299 17.9222 52.2299 17.9093 52.2299 17.9029C52.3448 17.8255 52.4406 17.7352 52.4981 17.632C52.5683 17.5159 52.6002 17.3998 52.5683 17.3031C52.5683 17.2902 52.5619 17.2773 52.5555 17.2709C52.4917 17.1419 52.4598 17.1354 52.4278 17.129C52.3512 17.1096 52.281 17.0967 52.2235 16.9742C52.166 16.8581 52.1852 16.7936 52.2043 16.7227C52.2107 16.6969 52.2235 16.6646 52.1596 16.5744V16.5615C52.1596 16.555 52.1469 16.5421 52.1405 16.5357C52.0958 16.4776 52.0255 16.4454 51.9297 16.4389C51.8148 16.4389 51.6743 16.4712 51.521 16.5615C51.521 16.5615 51.4827 16.5808 51.4636 16.6001L51.438 16.613C51.4061 16.6388 51.3742 16.6582 51.3358 16.6904H51.3231V16.7033C51.2401 16.7614 51.1634 16.8194 51.0868 16.8904C51.0102 16.9549 50.9463 17.0322 50.8888 17.1032C50.7547 17.2709 50.6526 17.445 50.5823 17.5998C50.4993 17.5482 50.4035 17.503 50.3077 17.4643C50.3205 17.4385 50.3269 17.4127 50.3397 17.3869C50.5312 16.9935 50.8697 16.5873 51.1954 16.3938C51.2081 16.3035 51.2145 16.2067 51.2145 16.1165C51.2145 15.9423 51.1826 15.7876 51.1251 15.6844C51.0804 15.6005 51.0229 15.5425 50.9591 15.5296C50.9527 15.5296 50.9399 15.5296 50.9208 15.5296H50.908C50.7547 15.5167 50.7164 15.5489 50.6909 15.5747C50.627 15.6263 50.5759 15.6779 50.4418 15.6715C50.3269 15.6586 50.2119 15.5231 50.0076 15.5038C49.8926 15.5231 49.7585 15.6005 49.6564 15.7231C49.5478 15.852 49.4712 16.0326 49.4776 16.2454C49.4776 16.2841 49.4776 16.3228 49.4903 16.3744C49.4903 16.4131 49.5031 16.4454 49.5095 16.4841C49.6053 16.8646 49.8288 17.1999 50.0331 17.4385C50.0523 17.5417 50.0651 17.6578 50.0651 17.7997V17.8126V17.8255C50.0267 18.0254 50.1289 18.1931 50.1736 18.2576C50.2311 18.3479 50.2566 18.3995 50.1609 18.4704C50.0842 18.5284 50.0331 18.4898 49.9118 18.4124C49.8416 18.3608 49.7202 18.2769 49.535 18.1608C49.4201 18.0899 49.2796 18.1028 49.1647 18.1157C49.0561 18.1222 48.9539 18.135 48.8645 18.1157C48.9028 18.2318 48.9667 18.3672 49.0369 18.5027H49.0433C49.1136 18.6897 49.3371 18.8251 49.5606 18.8832C49.6053 18.8961 49.6436 18.9089 49.6883 18.9089C49.7394 18.9154 49.7969 18.9154 49.8352 18.9089C50.1161 18.8767 50.3269 19.0831 50.4546 19.3217C50.4738 19.3668 50.4993 19.412 50.5121 19.4571C50.5248 19.5023 50.5376 19.5474 50.5504 19.5926C50.5887 19.8183 50.6462 19.9989 50.71 20.1472C50.4546 19.9602 50.1353 19.8247 49.8352 19.7215C49.5734 19.6313 49.3307 19.5732 49.1455 19.541C49.1072 19.541 49.0753 19.5281 49.0433 19.5216V19.541C49.0433 19.6313 49.0433 19.7538 49.0178 19.9215C48.9922 20.0633 48.9284 20.2504 48.9475 20.3987C48.9667 20.5599 49.0561 20.6954 49.1327 20.7986C49.1966 20.8824 49.2413 20.9533 49.2477 21.0372C49.2604 21.1726 49.1902 21.2564 48.9731 21.2758C48.6219 21.308 48.2515 21.5209 48.0088 21.6692C47.913 21.7272 47.8172 21.7853 47.7151 21.8433C47.5554 21.9336 47.3511 22.0561 47.2106 22.1593C47.134 22.2109 47.2489 22.2109 47.3128 22.2432C47.5937 22.3786 48.0088 22.585 48.2515 22.7784C48.3473 22.8558 48.4111 22.9461 48.5197 22.9977C48.724 23.0945 49.0114 23.0945 49.1838 22.9977C49.2796 22.9268 49.3498 22.9332 49.4073 23.0171C49.4201 23.0364 49.4329 23.0558 49.4392 23.0751C49.4584 23.1847 49.2924 23.404 49.2477 23.5072C49.203 23.6039 49.171 23.7136 49.1647 23.8168C49.1583 23.9586 49.2349 24.0683 49.2796 24.1973C49.3945 24.5455 49.3435 24.8357 49.3051 25.0228C49.3051 25.0357 49.3051 25.0486 49.3051 25.0679C49.4839 25.0357 49.6755 24.9712 49.8735 24.8744C49.8735 24.8744 49.8735 24.8809 49.8607 24.8873C49.7713 24.997 49.6947 24.997 49.6117 24.997C49.5797 24.997 49.5478 24.997 49.4903 25.0744C49.4839 25.0808 49.4776 25.0937 49.4712 25.0937C49.4137 25.184 49.3818 25.3388 49.4073 25.5C49.4329 25.6677 49.5159 25.8418 49.6819 25.9837C49.6819 25.9837 49.733 26.0224 49.7585 26.0417H49.7649C49.7969 26.0675 49.8352 26.0933 49.8735 26.1127C50.0714 26.0804 50.2886 26.0869 50.4929 26.0998C50.4482 25.9772 50.4738 25.8418 50.544 25.7773C50.5695 25.7128 50.71 25.6096 50.793 25.5387C50.7994 25.5258 50.8122 25.5193 50.8186 25.5129C50.7675 25.2872 50.7356 25.0421 50.7547 24.7906C50.742 24.7712 50.7228 24.7519 50.71 24.739C50.6206 24.6423 50.5248 24.5649 50.4354 24.5133C50.7292 24.2876 50.991 24.0102 51.189 23.7071C51.3295 23.4879 51.4316 23.2557 51.4699 23.0235C51.5083 22.7849 51.4827 22.5463 51.3742 22.327C51.3231 22.2238 51.2464 22.1206 51.189 22.0239C51.189 22.0239 51.1762 22.011 51.1762 22.0045C51.0868 22.2561 50.9974 22.4818 50.9016 22.6817C50.7867 22.9268 50.6781 23.1267 50.5759 23.2944C50.544 23.346 50.4738 23.3653 50.4227 23.3331C50.3716 23.3008 50.3524 23.2299 50.3844 23.1783C50.4865 23.0106 50.5887 22.8171 50.6973 22.585C50.7867 22.3915 50.8761 22.1787 50.9591 21.9272C50.6079 21.9401 50.2694 21.9594 49.9373 21.9916C49.5478 22.0239 49.1774 22.069 48.807 22.1271C48.7432 22.14 48.6921 22.0948 48.6793 22.0303C48.6729 21.9723 48.7113 21.9143 48.7687 21.9014C49.1391 21.8433 49.5159 21.7982 49.9118 21.7659C50.263 21.7337 50.627 21.7079 51.0038 21.7014C51.106 21.9272 51.2656 22.1206 51.4763 22.2496C51.5849 22.3141 51.7062 22.3593 51.8212 22.4173C51.8276 22.4173 51.8403 22.4237 51.8467 22.4302C51.7765 22.1464 51.7318 21.8949 51.6998 21.6627C51.6551 21.379 51.6424 21.1339 51.636 20.9146C51.636 20.8437 51.6871 20.7921 51.7573 20.7921C51.8212 20.7921 51.8786 20.8437 51.8786 20.9082C51.8786 21.1146 51.8978 21.3532 51.9361 21.624C51.968 21.8498 52.0127 22.0948 52.0766 22.3722C52.3831 22.1529 52.6769 21.9336 52.9579 21.7143C53.2899 21.4564 53.5964 21.192 53.8966 20.9275C53.9477 20.8824 54.0243 20.8888 54.069 20.9404C54.1137 20.992 54.1073 21.0694 54.0562 21.1081C53.7561 21.379 53.4432 21.6369 53.1047 21.9014C52.7982 22.1464 52.4789 22.3851 52.1341 22.6237C52.3831 22.7656 52.6194 22.8687 52.8493 22.9461C53.092 23.0235 53.3282 23.0751 53.59 23.1074C53.6603 23.1074 53.705 23.1718 53.6986 23.2428C53.6922 23.3137 53.6284 23.3589 53.5645 23.3524C53.2899 23.3202 53.0345 23.2686 52.7854 23.1847C52.5939 23.1203 52.4023 23.0429 52.2043 22.9397C52.2171 22.9784 52.2299 23.0235 52.2299 23.0751C52.4023 23.72 52.9706 23.8748 53.5837 23.8426C53.3921 24.1328 53.258 24.5391 53.1877 24.9712C53.1686 25.113 53.1558 25.2549 53.1494 25.3968C53.0345 25.2162 52.9195 25.0421 52.811 24.868C52.8301 24.7712 52.8365 24.681 52.8237 24.5907C52.811 24.4939 52.779 24.423 52.7216 24.3907C52.7152 24.3843 52.7024 24.3778 52.6896 24.3778C52.5747 24.3327 52.5172 24.3262 52.4853 24.3327C52.2235 23.8942 51.9936 23.475 51.7956 23.0687C51.968 23.4814 52.1724 23.9135 52.4151 24.3649C52.364 24.3907 52.3129 24.4036 52.2171 24.3778C52.0894 24.3391 52.0511 24.2747 52.0127 24.1973C51.9936 24.1586 51.9744 24.1134 51.8531 24.0812C51.8403 24.0812 51.8339 24.0812 51.8148 24.0747C51.6998 24.0618 51.553 24.0941 51.4189 24.1908C51.2784 24.2811 51.1507 24.4359 51.0932 24.6423C51.0932 24.6487 51.0613 24.7648 51.0676 24.7712C51.0676 24.7712 51.0676 24.7777 51.0676 24.7841C51.0293 25.0808 51.0804 25.3968 51.1762 25.6806C51.1954 25.7064 51.2209 25.7322 51.2401 25.758C51.2401 25.758 51.2464 25.7709 51.2528 25.7773C51.2528 25.7386 51.2528 25.6999 51.2592 25.6612C51.2911 25.3839 51.5274 25.3001 51.6488 25.3194C51.7445 25.3388 51.9042 25.4162 52 25.4355C52.0766 25.4742 52.1149 25.5451 52.1149 25.6419C52.3129 25.5129 52.5045 25.4097 52.6577 25.3517C52.7088 25.2549 52.7599 25.1388 52.7982 25.0163C52.9004 25.1904 53.0089 25.371 53.1239 25.558C53.06 25.5645 52.9898 25.5774 52.9195 25.5967C52.6833 25.6806 52.4598 25.8031 52.2618 25.9321C52.3512 25.9708 52.4151 26.0353 52.4342 26.0933C52.4406 26.1836 52.4598 26.3642 52.4981 26.4545C52.5172 26.6093 52.3129 26.7189 52.0383 26.7189C52.0064 26.7189 51.9744 26.7189 51.9425 26.706C52.2426 26.8995 52.5939 27.08 52.9068 27.08C52.9898 27.08 53.0728 27.0736 53.1558 27.0542C53.2771 27.0285 53.3857 26.9898 53.4751 26.9382C53.5006 26.9833 53.5262 27.0285 53.5581 27.0671C53.7114 27.28 53.9157 27.4412 54.1648 27.525C54.2286 27.5444 54.2925 27.5573 54.3564 27.5702C54.6565 28.1893 54.9119 28.8149 55.1227 29.4469C54.9183 29.0986 54.5926 28.7762 54.2797 28.5182C54.0371 28.3183 53.8008 28.1571 53.6284 28.0474C53.5837 28.0216 53.5517 27.9894 53.5326 27.9636C53.5326 27.9829 53.5198 28.0023 53.5198 28.0216C53.3602 28.544 52.9579 28.8278 53.1047 29.4275C53.1367 29.5436 53.1558 29.6404 53.1367 29.7242C53.0983 29.8661 52.9962 29.9177 52.7727 29.8596C52.3767 29.75 51.9042 29.8274 51.5785 29.8725C51.4955 29.8854 51.4252 29.8919 51.3614 29.9048C51.2081 29.9241 50.9144 29.9693 50.6717 30.0338C50.5887 30.0467 50.5121 30.0725 50.4482 30.0918C50.4738 30.1111 50.5057 30.1369 50.544 30.1756C50.8314 30.4723 51.3167 30.9753 51.4316 31.3042C51.5274 31.5558 51.7956 31.717 52.0702 31.7815C52.1213 31.7944 52.1596 31.8008 52.2043 31.8008C52.2363 31.8008 52.2682 31.8008 52.2937 31.8008C52.4151 31.7686 52.4789 31.7944 52.5045 31.8911C52.5364 31.9943 52.4789 32.0394 52.3831 32.1168C52.2299 32.2394 51.8403 32.5489 51.8786 32.8972C51.9233 33.4196 51.7254 33.7614 51.5977 33.9806C51.5849 34.0064 51.5657 34.0322 51.553 34.058C51.917 34.1419 52.3767 34.1096 52.8429 33.9871C53.3027 33.871 53.7561 33.6646 54.1201 33.3873C54.1137 33.4067 54.1073 33.4196 54.1009 33.4389C53.8583 33.9549 53.3857 34.187 53.4432 34.8384C53.4559 34.9674 53.4623 35.0706 53.4304 35.1544C53.3665 35.2963 53.2516 35.335 53.0217 35.2382C52.6322 35.0641 52.1213 35.0577 51.7765 35.0641C51.6871 35.0641 51.6104 35.0641 51.5466 35.0641C51.3869 35.0577 51.0676 35.0641 50.8058 35.0835C50.7164 35.0835 50.6334 35.0964 50.5632 35.1093C50.5823 35.135 50.6142 35.1673 50.6462 35.2189C50.8952 35.5736 51.3295 36.1798 51.3933 36.541C51.4508 36.8183 51.7062 37.0311 51.9872 37.1407C52.0383 37.1601 52.083 37.173 52.1213 37.1859C52.1532 37.1923 52.1852 37.1988 52.2107 37.1988C52.3448 37.1794 52.4087 37.2246 52.4278 37.3342C52.4406 37.4438 52.3703 37.4825 52.2618 37.547C52.0766 37.6567 51.6232 37.9082 51.604 38.2822C51.5721 38.8304 51.3039 39.1593 51.1379 39.3657C51.1123 39.3915 51.0932 39.4173 51.0804 39.4366C51.4508 39.585 51.9361 39.6237 52.4406 39.5721C52.9323 39.5205 53.4432 39.3786 53.8646 39.1529C54.2797 38.9272 54.6182 38.6305 54.7842 38.2564C54.8736 38.0565 54.9119 37.8244 54.8864 37.5793C54.8864 37.5793 54.8864 37.5793 54.8864 37.5728C54.8481 37.6051 54.8161 37.6309 54.7842 37.6631C54.7012 37.7341 54.6246 37.7986 54.5479 37.863C54.152 38.192 53.788 38.4306 53.4751 38.5789C53.4112 38.6047 53.3346 38.5789 53.3091 38.5209C53.2835 38.4564 53.3091 38.3854 53.3665 38.3532C53.6667 38.2049 54.0179 37.9791 54.3947 37.6696C54.4713 37.6051 54.5479 37.5406 54.6182 37.4761C54.6948 37.4052 54.8608 37.3149 54.88 37.2181C54.4585 36.9989 54.0434 36.7925 53.6475 36.599C53.2197 36.3991 52.8046 36.2185 52.3767 36.0573C52.3129 36.0315 52.281 35.967 52.3065 35.8961C52.332 35.8316 52.4023 35.7993 52.4598 35.8187C52.894 35.9799 53.3155 36.1605 53.7497 36.3668C54.1456 36.5539 54.5543 36.7538 54.963 36.9731C54.9822 36.9408 54.9438 36.1347 54.9311 36.0637C54.8864 35.78 54.8161 35.522 54.7076 35.264C54.6756 35.1995 54.7076 35.1286 54.7714 35.1028C54.8353 35.077 54.9055 35.1028 54.9311 35.1673C55.0524 35.4446 55.129 35.7219 55.1737 36.025C55.2057 36.2314 55.2184 36.4507 55.2184 36.6828C55.244 36.6571 55.2759 36.6313 55.3015 36.6055C56.0997 35.8767 55.4547 34.8126 54.8097 34.0903C54.5862 33.8452 54.3691 33.6388 54.2031 33.497C54.1584 33.4583 54.1328 33.426 54.1137 33.3938C54.2797 33.2712 54.4266 33.1294 54.5479 32.9746C54.6246 33.052 54.7459 33.1229 54.8992 33.1358C55.0588 33.1616 55.244 33.1229 55.4228 33.0004C55.4483 32.981 55.4739 32.9617 55.5058 32.9359C55.6144 32.8391 55.7038 32.7295 55.7804 32.6134C56.0741 35.6768 55.3078 38.7466 53.4368 41.6165C53.4368 41.4488 53.4368 41.2876 53.4304 41.1328C53.4112 40.8103 53.3665 40.5201 53.3282 40.3137C53.3155 40.2557 53.3155 40.2105 53.3282 40.1783C53.3091 40.1912 53.2899 40.1976 53.2708 40.2105C52.7727 40.4492 52.281 40.3395 51.9361 40.8684C51.8723 40.9715 51.8148 41.0554 51.7382 41.0941C51.604 41.165 51.4955 41.1263 51.3869 40.9135C51.1954 40.5394 50.8122 40.2299 50.544 40.0171C50.4801 39.9655 50.4163 39.9203 50.3716 39.8752C50.2502 39.772 50.0076 39.585 49.7969 39.4366C49.7202 39.3915 49.6564 39.3464 49.5989 39.3141C49.5989 39.3464 49.5989 39.3915 49.5989 39.4495C49.5733 39.8752 49.535 40.591 49.3754 40.9071C49.2541 41.1586 49.3243 41.4681 49.4648 41.7197C49.4903 41.7712 49.5159 41.8035 49.5414 41.8357C49.5606 41.8615 49.5861 41.8809 49.5989 41.9002C49.7075 41.9712 49.733 42.0421 49.6819 42.1324C49.6244 42.2291 49.5542 42.2098 49.4329 42.1904C49.2285 42.1582 48.7304 42.0744 48.5005 42.3452C48.3345 42.5387 48.1557 42.6548 47.9897 42.7322V42.1324C48.6921 40.662 49.088 39.011 49.088 37.2697C49.088 34.4063 48.4558 31.588 47.1531 29.047C46.9296 28.357 46.7444 27.6476 46.6103 26.9382C46.4762 26.2223 46.3868 25.5 46.3357 24.7777C46.1058 21.0694 47.019 17.3418 49.0433 14.1753L49.1774 13.9689L42.0955 6.84256L42.0061 6.75227H20.2112L20.1218 6.82966L13.2059 13.7754L13.0335 13.9495L13.1676 14.1559C13.5635 14.775 13.9148 15.4135 14.2277 16.0649C14.5406 16.7162 14.8024 17.3934 15.0323 18.077C16.3414 22.0497 16.2009 26.261 14.5789 30.0918C14.4192 30.4594 14.2788 30.827 14.1447 31.2075C13.4678 33.1358 13.1102 35.1866 13.1102 37.2504C13.1102 38.8111 13.4294 40.3008 14.0042 41.6552V43.3642C13.7232 43.4222 13.4422 43.4996 13.174 43.5899C13.4294 43.1385 13.5316 42.6096 13.4486 41.9905C13.3784 41.6229 13.1165 41.0038 12.8036 40.2621C12.6695 39.9526 12.529 39.6172 12.3885 39.2754C12.3438 39.9332 12.1395 40.6491 11.9352 41.3843C11.6542 42.3775 11.3732 43.3964 11.4754 44.2864C11.3987 44.3251 11.3221 44.3638 11.2519 44.4025C11.2263 44.3767 11.1944 44.3574 11.1689 44.3316C11.0539 43.3835 11.354 42.3259 11.6414 41.3005C11.8521 40.5523 12.0629 39.8236 12.0884 39.1722C11.8649 39.5656 11.6159 39.9461 11.3732 40.3202C10.9645 40.9393 10.575 41.5326 10.3706 42.1195V42.1259C10.3068 42.3001 10.2493 42.4807 10.2046 42.6677C10.1471 42.8934 10.1152 43.1256 10.1152 43.3577C9.44467 42.687 8.85717 41.997 8.35269 41.2876C9.06152 41.2102 9.68733 41.0167 10.1854 40.6491C10.7218 40.2492 11.105 39.6495 11.2902 38.7724C11.3987 38.2564 11.3987 37.2891 11.3987 36.1476C11.3987 35.7671 11.3987 35.3737 11.3987 34.9674C11.0858 35.7413 10.5686 36.5023 10.0513 37.2697C9.19562 38.5338 8.32076 39.83 8.31438 41.236C8.21859 41.1005 8.1228 40.9651 8.0334 40.8232C8.18027 39.4882 8.99766 38.2758 9.80228 37.0891C10.3323 36.3023 10.8559 35.5285 11.1561 34.7481C10.7793 35.0899 10.3898 35.4059 10.0002 35.709C9.36166 36.2185 8.74223 36.7086 8.29522 37.2762C7.77796 37.8953 7.29264 38.7788 7.38204 39.6946C6.74984 38.4757 6.35392 37.1988 6.18789 35.8832C6.23898 35.8187 6.29006 35.7477 6.34115 35.6768C6.73069 35.1608 7.20324 34.632 7.47783 34.3934C7.47783 34.3934 7.48422 34.3869 7.4906 34.3805C7.944 33.9549 8.49957 33.6001 9.06791 33.2454C9.90445 32.7166 10.7602 32.1749 11.2966 31.3881C10.9645 31.4719 10.5877 31.53 10.1918 31.5945C9.25948 31.7363 8.23136 31.8911 7.56085 32.4909C6.78816 33.1939 6.32199 34.1096 6.19427 35.0964C6.17512 35.2511 6.16234 35.4124 6.16234 35.5671C6.02186 34.1161 6.15596 32.607 6.57104 31.0592C6.57104 31.0592 6.57104 31.0656 6.57104 31.0721C6.64767 30.9818 6.7243 30.8915 6.80093 30.8012C7.2671 30.2659 7.82267 29.7178 8.12919 29.4727C8.6656 29.0406 9.29141 28.6988 9.92361 28.357C10.907 27.8217 11.9032 27.2864 12.561 26.4093C12.1778 26.4867 11.7372 26.5254 11.2838 26.5641C10.2557 26.6544 9.12538 26.7576 8.35908 27.3574C8.21859 27.467 8.09087 27.5831 7.96315 27.7056C8.42932 26.6995 8.73584 25.816 8.91465 24.997C9.36804 23.9715 10.2493 23.2944 11.1433 22.6172C11.9288 22.0174 12.727 21.4112 13.2251 20.5535C12.6184 20.9856 12.0948 21.1081 11.5775 21.2306C11.0347 21.3532 10.492 21.4822 9.87252 22.011C9.52769 22.3077 9.26587 22.6043 9.08068 22.901C9.05513 22.4689 8.98489 22.0432 8.88272 21.6176C8.89549 21.6047 8.91465 21.5918 8.92742 21.5789C8.95296 21.5531 8.97212 21.5273 8.99128 21.5015C9.07429 21.5789 9.18285 21.6369 9.29141 21.6627C9.40636 21.6885 9.5213 21.6756 9.6107 21.6176C9.6107 21.6176 9.64902 21.5854 9.67456 21.566C9.67456 21.566 9.67456 21.5596 9.68095 21.5531C9.87891 21.379 9.94277 21.0759 9.99385 20.8308C10.013 20.747 10.0258 20.6696 10.0513 20.5986C10.0641 20.5535 10.0641 20.5277 10.0705 20.5019C10.0833 20.4374 10.096 20.3729 10.1152 20.3084C10.0258 20.4567 9.94277 20.6373 9.88529 20.7663C9.85337 20.8308 9.82782 20.8888 9.80228 20.934C9.78951 20.9598 9.75758 20.9856 9.71926 20.992H9.70649C9.70649 20.992 9.67456 20.992 9.66179 20.9791C9.70011 20.8888 9.76396 20.6889 9.84059 20.4439C9.99385 19.9602 10.1918 19.3217 10.377 19.0379V19.0315C10.4409 18.9347 10.5558 18.7735 10.6644 18.58C10.6899 18.5929 10.7091 18.5994 10.7346 18.6123C10.7474 18.6187 10.7602 18.6252 10.7729 18.6381C10.9645 18.8122 11.2455 18.9154 11.6031 18.9541C11.6733 18.9605 11.7563 18.967 11.833 18.967H11.9032C11.7883 18.4124 11.5967 17.9867 11.3413 17.6707C11.3285 17.6643 11.3221 17.6514 11.3221 17.6449C11.2774 17.574 11.303 17.4772 11.3732 17.4321C11.7563 17.1999 11.9862 16.9678 12.1267 16.7098C12.2481 16.4905 12.3119 16.2519 12.3566 15.9746C12.0437 15.9746 11.7947 15.981 11.5648 16.0326C11.3093 16.0907 11.0731 16.2067 10.7921 16.4067C10.7793 16.4131 10.7665 16.426 10.7474 16.4325C10.6708 16.4647 10.5814 16.426 10.5494 16.3422C10.3642 15.8714 10.0769 15.5038 9.70649 15.2394C9.63625 15.1878 9.55962 15.1362 9.48299 15.0975C9.45744 15.0781 9.42551 15.0652 9.39359 15.0523C9.29141 15.4006 9.21478 15.7231 9.19562 16.0197C9.17008 16.3486 9.21478 16.6453 9.34888 16.9162C9.36166 16.9355 9.36804 16.9613 9.36804 16.9806C9.36804 17.0645 9.31057 17.1419 9.22755 17.1483C8.94019 17.1677 8.62728 17.3225 8.30799 17.5869C8.24413 17.6385 8.18027 17.6965 8.11642 17.7546C8.08449 17.7868 8.04617 17.8255 8.01424 17.8577C8.23775 18.1093 8.52511 18.2447 8.85717 18.264C8.9338 18.264 9.01043 18.264 9.09345 18.264C9.17647 18.2576 9.2531 18.2382 9.3425 18.2189C9.3425 18.2189 9.39359 18.2189 9.41913 18.2189C9.49576 18.2382 9.566 18.2576 9.64263 18.2769C9.65541 18.4059 9.67456 18.5413 9.69372 18.6703C9.71926 18.8509 9.74481 19.0121 9.73842 19.154C9.73842 19.4055 9.62986 19.8118 9.51492 20.2117C9.44467 20.4825 9.37443 20.747 9.33611 20.934C9.32973 20.934 9.32334 20.934 9.31695 20.9211C9.31695 20.9211 9.30418 20.9082 9.30418 20.9017C9.25948 20.8372 9.30418 20.6825 9.36804 20.4696C9.41274 20.3213 9.46383 20.1343 9.50853 19.9279C9.50853 19.9279 9.50853 19.8699 9.50853 19.8312C9.45744 20.0827 9.32334 20.2826 9.22117 20.4374L9.2084 20.4632C9.19562 20.4825 9.18285 20.5019 9.17008 20.5212C9.11261 20.618 9.01682 20.7728 8.95296 20.934C8.86356 20.7792 8.72307 20.6438 8.60174 20.5277C8.56343 20.4954 8.5315 20.4568 8.49957 20.4245C8.46764 20.3407 8.43571 20.2568 8.39739 20.173C8.42932 20.2568 8.46125 20.3407 8.49318 20.4245C8.47402 20.4052 8.44848 20.3794 8.42932 20.36C8.39739 20.3278 8.37823 20.3084 8.35908 20.2891C8.31438 20.2439 8.26968 20.1988 8.22497 20.1536C8.29522 20.3084 8.40378 20.4761 8.48679 20.5922C8.52511 20.6567 8.55704 20.7083 8.58258 20.7534C8.60174 20.7857 8.60174 20.8244 8.58258 20.8566C8.58258 20.8566 8.58258 20.863 8.5762 20.863C8.56343 20.8824 8.54427 20.8953 8.5315 20.9017C8.52511 20.8759 8.51234 20.8501 8.49957 20.8244C8.46125 20.7663 8.36546 20.6631 8.25052 20.5277C7.944 20.1794 7.47783 19.6571 7.33734 19.3088C7.32457 19.2637 7.29903 19.2121 7.27987 19.154C7.16492 18.8187 6.93503 18.1673 6.62851 17.9416C6.62851 17.9416 6.62213 17.9416 6.61574 17.9351C6.80732 17.9222 6.97335 17.8835 7.12022 17.819C7.34373 17.7288 7.54169 17.574 7.75242 17.3741C7.50976 17.1806 7.29903 17.0387 7.09468 16.942C6.84563 16.8259 6.58381 16.7743 6.23259 16.7614H6.03463L6.08571 16.5615C6.1815 16.2196 6.21982 15.8843 6.1815 15.5683C6.15596 15.3039 6.08571 15.0524 5.958 14.8008C5.67702 15.0201 5.42159 15.2329 5.21724 15.4586C4.99373 15.7102 4.83409 15.9746 4.77662 16.2777L4.73191 16.5228L4.53395 16.3744C4.37431 16.2519 4.17635 16.181 3.9273 16.1487C3.70379 16.1229 3.44836 16.1294 3.15461 16.1745C3.17377 16.3938 3.23763 16.5873 3.35896 16.7549C3.49945 16.9613 3.71018 17.129 4.00393 17.2709L4.34238 17.4321L3.99116 17.5546C3.78042 17.632 3.63993 17.7868 3.55053 17.9867C3.46752 18.1737 3.41643 18.3995 3.39089 18.651C3.77404 18.7026 4.09972 18.6768 4.34876 18.5671C4.39985 18.5478 4.45094 18.5156 4.49564 18.4898C4.54034 18.4575 4.58504 18.4253 4.62335 18.3866L4.83409 18.1866L4.8724 18.4769C4.91072 18.7477 5.07036 19.0057 5.3258 19.2572C5.37689 19.3088 5.43436 19.3539 5.49183 19.4055C5.49183 19.4055 5.53015 19.4313 5.54292 19.4507C5.77281 18.9541 5.88775 18.4898 5.89414 18.0706V17.8964L6.06656 17.9158C6.14319 17.9222 6.21343 17.9287 6.27729 17.9351C6.20066 17.9803 6.12403 18.0577 6.03463 18.1737C5.79835 18.9476 6.32838 19.1927 6.74984 19.3797C6.89672 19.4442 7.02443 19.5023 7.13299 19.5797C7.35011 19.7473 7.60555 20.1214 7.84821 20.4696C8.03978 20.747 8.21859 21.0049 8.33353 21.121C8.32076 21.121 8.31438 21.1339 8.3016 21.1339C8.3016 21.1339 8.28883 21.1339 8.28245 21.1339C8.20582 21.1339 8.10364 21.0243 7.95677 20.8566C7.8546 20.7405 7.72688 20.5922 7.58 20.4439C7.58 20.4439 7.52892 20.4116 7.49699 20.3923C7.67579 20.5664 7.77158 20.7921 7.84821 20.9662L7.86098 20.992C7.86098 20.992 7.88014 21.0307 7.89291 21.0565C7.99508 21.2629 8.20582 21.7014 8.47402 21.7595C8.51234 21.7595 8.54427 21.7595 8.58258 21.7466C8.6656 21.7272 8.74861 21.6885 8.81886 21.6369C8.90826 22.14 8.94019 22.6366 8.91465 23.1461C8.82524 23.3266 8.76777 23.5137 8.72307 23.7071C8.72307 23.7265 8.71669 23.7458 8.7103 23.7652C8.69114 23.5394 8.64644 23.3202 8.58897 23.1074C8.35908 22.2367 7.84821 21.4628 7.24155 20.8759C6.62851 20.2955 5.91968 19.8957 5.26194 19.7731C5.16615 19.7538 5.07036 19.7409 4.98096 19.7344C5.82389 20.3278 6.21343 21.2629 6.59658 22.1851C7.04359 23.2621 7.48422 24.3133 8.65921 24.6745C8.33992 25.8805 7.73965 27.2348 6.84563 28.8858C7.09468 27.9055 7.03721 26.8737 6.64128 25.9063C6.23898 24.9647 5.28748 24.3069 4.42539 23.7136C4.06779 23.4685 3.72934 23.2299 3.43559 22.9913C3.60162 24.0489 4.20189 25.0034 4.78939 25.9385C5.17892 26.5641 5.56846 27.1768 5.83028 27.8281C5.96438 28.2022 6.18789 28.9438 6.33476 29.6404C6.35392 29.7371 6.37308 29.8338 6.39224 29.9241C6.04101 30.9108 5.79197 31.8847 5.63871 32.8391C5.48545 31.9169 5.02566 31.085 4.41901 30.382C3.72295 29.5888 2.83532 28.9696 1.986 28.602C1.62201 28.4473 1.2644 28.3376 0.932334 28.2731C1.8966 29.118 2.39469 30.2788 2.89279 31.4203C3.49306 32.8005 4.07417 34.1612 5.46629 34.8448C5.46629 34.8384 5.46629 34.8319 5.47267 34.8255C5.4599 35.7155 5.54292 36.5926 5.72172 37.4503C5.29387 36.8828 4.73191 36.4249 4.11249 36.0702C3.19931 35.5542 2.15842 35.2705 1.23885 35.206C0.78546 35.1737 0.363993 35.1995 0 35.2769C1.21331 35.7477 2.08179 36.6893 2.93749 37.6244C3.972 38.753 4.98735 39.8558 6.5455 40.0042C6.5455 39.9913 6.5455 39.9784 6.5455 39.9655C6.75623 40.4234 6.99251 40.8748 7.26071 41.3198C6.44332 41.1586 5.52376 41.3004 4.67444 41.4294C4.22105 41.5004 3.78681 41.5713 3.39089 41.5907C4.05501 42.113 4.86602 42.4033 5.70256 42.6354C6.68598 42.9127 7.68218 43.1062 8.55704 43.5125C8.74223 43.6028 9.01043 43.7511 9.30418 43.9253C9.61709 44.2477 9.95554 44.5637 10.3068 44.8733C10.2876 44.8862 10.2621 44.8991 10.2429 44.912C10.1854 44.8668 10.1216 44.8281 10.0641 44.783C9.4766 44.3767 8.79331 43.9704 8.42294 43.7963C7.59916 43.4158 6.58381 43.2159 5.61316 42.9385C4.77662 42.6999 3.95923 42.4097 3.26956 41.8938C3.28233 41.9131 3.28871 41.9389 3.2951 41.9583C3.3845 42.1453 3.49945 42.3323 3.63355 42.5129C4.32322 43.4674 5.49822 44.3058 6.10487 44.6992C7.52892 45.5827 8.79331 45.486 9.75758 45.2215C9.4766 45.4086 9.30418 45.5376 9.27225 45.5634L8.91465 45.8407L9.36804 45.8084C9.36804 45.8084 11.1944 45.673 12.2928 46.2018C10.8559 47.5368 10.1663 49.4522 10.1343 49.536L10.013 49.8778L10.3259 49.6973C10.3706 49.6715 14.5214 47.2982 17.9187 48.3429L18.1422 48.4139L17.8484 46.4082C19.6748 47.7109 21.8971 48.4784 24.3045 48.4848C25.5051 48.4848 26.6865 48.6976 27.8104 49.0975C27.9892 49.162 28.168 49.2329 28.3532 49.3103C29.2727 49.6973 30.1412 50.2132 30.9267 50.8452L31.1246 51.0064L31.3162 50.8452C31.5716 50.6388 31.8398 50.4389 32.1144 50.2519C32.3954 50.0649 32.6764 49.8907 32.9638 49.7424C34.4644 48.9298 36.1567 48.4977 37.8936 48.4977C40.1989 48.4977 42.3382 47.7948 44.1198 46.5888L43.8516 48.4268L44.0751 48.3558C47.4724 47.3175 51.6232 49.6844 51.6679 49.7102L51.9808 49.8907L51.8595 49.5489C51.8276 49.4651 51.1379 47.5497 49.7011 46.2147C50.7994 45.6859 52.6066 45.8213 52.6258 45.8213L53.0792 45.8536L52.7216 45.5762C52.6705 45.5376 52.3129 45.2667 51.7382 44.912C52.3065 44.3251 52.8174 43.7253 53.2771 43.1191C53.4751 42.8547 53.6667 42.5838 53.8391 42.3194C53.8646 42.2936 53.8838 42.2678 53.9093 42.242C53.986 42.1646 54.0562 42.0873 54.1265 42.0228C54.4968 41.6616 54.8353 41.3907 55.1354 41.2102C55.1929 41.1779 55.2695 41.1908 55.3015 41.2553C55.3334 41.3134 55.3206 41.3907 55.2631 41.423C54.9822 41.5971 54.6501 41.8486 54.2989 42.1969C54.235 42.2678 54.1584 42.3388 54.0945 42.4097C54.0243 42.4807 53.8646 42.5903 53.8646 42.687C54.3053 42.8676 54.7267 43.0417 55.1418 43.1901C55.5824 43.3513 56.0167 43.4932 56.4573 43.6157C56.5275 43.635 56.5595 43.6995 56.5467 43.764C56.5275 43.835 56.4637 43.8672 56.3934 43.8543C55.9528 43.7318 55.5122 43.5899 55.0652 43.4222C54.6501 43.2739 54.2286 43.1062 53.8008 42.9321C53.788 42.9643 53.8966 43.764 53.9093 43.835C53.9796 44.1058 54.0754 44.3638 54.2095 44.6089C54.2478 44.6669 54.2159 44.7443 54.1648 44.7766C54.1073 44.8088 54.0307 44.783 53.9987 44.725C53.8583 44.4605 53.7497 44.1897 53.6795 43.893C53.6284 43.6931 53.5964 43.4738 53.5773 43.2417C53.5517 43.2674 53.5262 43.2997 53.4943 43.3319C52.7599 44.1316 53.4943 45.1313 54.2031 45.7891C54.4458 46.0148 54.6756 46.2018 54.8608 46.3244C54.9055 46.3566 54.9375 46.3953 54.9566 46.4211C54.9566 46.4017 54.9694 46.3824 54.9758 46.3566C55.1737 45.8213 55.6271 45.5504 55.5058 44.9055C55.4803 44.7766 55.4611 44.6798 55.4866 44.5895C55.5377 44.4412 55.6527 44.396 55.8826 44.4734C56.2913 44.6153 56.7957 44.5702 57.1406 44.5379C57.23 44.5315 57.3066 44.525 57.3705 44.5186C57.5365 44.5121 57.8494 44.4799 58.1112 44.4412C58.2006 44.4283 58.2837 44.409 58.3475 44.3896C58.322 44.3638 58.2836 44.3316 58.2517 44.2864C57.9707 43.9575 57.4918 43.39 57.3896 43.0353C57.3002 42.758 57.032 42.5774 56.7447 42.4871C56.6936 42.4678 56.6425 42.4613 56.6106 42.4549C56.5786 42.4549 56.5467 42.4549 56.5212 42.4549C56.3934 42.4807 56.3232 42.442 56.2977 42.3388C56.2721 42.2291 56.336 42.184 56.4445 42.113C56.6169 41.9905 57.0448 41.7003 57.032 41.3262C57.0192 40.7716 57.2491 40.4234 57.4024 40.2041C57.4216 40.1783 57.4343 40.1525 57.4535 40.1267C57.5557 40.1654 57.6642 40.2041 57.7664 40.2428C58.0793 40.346 58.3667 40.4169 58.5838 40.4556C58.6413 40.4685 58.6796 40.4879 58.7115 40.5072C58.7115 40.4879 58.7115 40.4621 58.7115 40.4363C58.6668 39.8623 58.9605 39.4237 58.5838 38.8949C58.5135 38.7917 58.4497 38.7079 58.4433 38.6176C58.4241 38.4628 58.5072 38.3725 58.7498 38.3467C59.1777 38.3016 59.6183 38.0436 59.9184 37.8695C59.9887 37.8244 60.0589 37.7857 60.1164 37.7534C60.2633 37.676 60.5315 37.5148 60.755 37.3665C60.8252 37.3149 60.8955 37.2633 60.9466 37.2181C60.9146 37.2117 60.8699 37.1923 60.8252 37.1665H60.7741ZM50.6206 21.0888C50.4738 20.9017 50.3077 20.7405 50.1225 20.5857C50.0714 20.547 50.0651 20.4761 50.1098 20.4245C50.1481 20.3794 50.2183 20.3729 50.2694 20.4116C50.461 20.5793 50.6334 20.747 50.793 20.9469C50.8058 20.9662 50.8186 20.9856 50.8377 20.9985C50.8441 21.1855 50.8761 21.3725 50.9272 21.5338C50.8314 21.3661 50.7292 21.2177 50.6206 21.0823V21.0888ZM50.9208 18.1351C50.9208 18.1351 50.9463 18.1351 50.9655 18.1351C51.1187 18.1544 51.2848 18.1608 51.438 18.1544C51.4061 18.206 51.3742 18.2576 51.3486 18.2963C51.2209 18.5027 51.1762 18.58 51.0613 18.5478C50.9719 18.5156 50.9655 18.4575 50.9527 18.3543C50.9527 18.3027 50.9399 18.2253 50.9208 18.1351ZM54.35 29.4469C54.4074 29.4146 54.4777 29.4275 54.5096 29.4856C54.6118 29.6533 54.7012 29.8274 54.7714 30.008C54.7267 30.0273 54.682 30.0273 54.6373 30.0273C54.6118 30.0273 54.5862 30.0273 54.5479 30.0725C54.4841 29.9112 54.4074 29.7564 54.3117 29.6081C54.2797 29.5565 54.2989 29.4791 54.35 29.4469ZM53.6284 32.8778C53.5773 32.9165 53.5006 32.9036 53.4623 32.852C53.4304 32.8005 53.4432 32.7295 53.4943 32.6908C53.6667 32.5683 53.8646 32.4006 54.0626 32.2007C54.1392 32.3361 54.1903 32.349 54.2286 32.3555C54.0115 32.5683 53.8008 32.7424 53.6156 32.8778H53.6284ZM5.594 17.5869C5.594 17.7997 5.53015 18.0706 5.38327 18.3479C5.14061 18.1673 5.01928 17.9867 4.96181 17.7997C4.84047 17.9222 4.59781 17.9545 4.29768 17.9222C4.32961 17.6191 4.38708 17.374 4.62974 17.2773C4.32961 17.1548 4.20827 16.942 4.20189 16.6711C4.50202 16.6066 4.77662 16.6388 4.92988 16.7614C4.98735 16.4583 5.25555 16.2454 5.55569 16.0004C5.74088 16.2712 5.77281 16.5808 5.68341 16.9162C6.01547 16.9484 6.19427 17.0322 6.46887 17.2773C6.2262 17.5224 6.01547 17.6449 5.594 17.5869ZM13.9212 37.1472C13.9212 35.1673 14.266 33.2003 14.911 31.3494C15.0387 30.9882 15.1792 30.6335 15.3197 30.2788C16.98 26.3513 17.1524 22.0948 15.7858 17.9287C15.5559 17.2257 15.2813 16.5357 14.962 15.8649C14.6747 15.2587 14.3554 14.6718 14.0106 14.1043L20.588 7.47458H41.6102L48.1749 14.1172C46.1952 17.3354 45.3012 21.0759 45.5375 24.8035C45.5822 25.5451 45.6716 26.2868 45.8121 27.022C45.9653 27.8668 46.1697 28.6923 46.489 29.4856C47.664 31.8589 48.2515 34.4901 48.2515 37.1601C48.2515 38.6047 47.9577 39.9784 47.4405 41.2295C47.2872 41.1457 47.134 41.0683 46.9743 40.9844C47.4405 39.8429 47.7023 38.6176 47.7278 37.3471V37.1536C47.7278 35.7542 47.5554 34.3676 47.2234 33.0262C46.5145 32.5683 45.1799 31.8653 43.6856 31.8653C43.3855 31.8653 43.0917 31.8782 42.798 31.8976L42.6702 31.6461C42.3318 31.5687 41.987 31.4977 41.6485 31.4268L37.5743 18.0448C37.6829 18.0641 37.7915 18.0899 37.9064 18.1093L38.0086 18.1286L38.0916 18.0448L38.5769 17.4837L38.9856 16.3164L39.0112 16.2519V16.1745C39.0112 16.0197 39.0112 15.8585 39.0112 15.6973V14.9621L38.8196 14.9105C38.2449 14.7557 37.6701 14.6138 37.089 14.4848L36.8144 14.4203L35.5692 15.1684V14.9814C35.5692 14.8202 35.5692 14.6525 35.5692 14.4913V14.2011L35.3521 14.1753C34.7773 14.0979 34.1962 14.0334 33.6215 13.9882L33.3661 13.9689L32.6061 14.9298L32.1208 14.9169V14.7299C32.1208 14.5622 32.1208 14.3945 32.1208 14.2333V13.9173H31.8845C31.3098 13.9108 30.7351 13.9108 30.1604 13.9173H29.9177V14.2333V14.9234L29.4388 14.9427L28.6789 13.9818L28.4234 14.0076C27.8423 14.0527 27.2676 14.1172 26.6929 14.1946L26.4757 14.2204V15.1749L25.2369 14.4332L24.9623 14.4913C24.3876 14.6138 23.8064 14.7557 23.2317 14.904L23.0401 14.9556V15.22C23.0401 15.3748 23.0401 15.536 23.0401 15.6908V16.2454L23.0657 16.3099L23.4552 17.4579L24.03 18.0254L24.1066 18.1093L24.2088 18.0835C24.3748 18.0512 24.5472 18.019 24.7132 17.9867L20.5688 31.4074C20.109 31.5042 19.6429 31.6009 19.1831 31.7105C19.132 31.8008 19.0234 32.0072 18.9213 32.2136C18.0464 32.3297 17.1843 32.478 16.3542 32.6715C16.1626 32.7166 15.4729 32.8391 14.9748 33.0326C14.6364 34.3805 14.4639 35.7606 14.4639 37.1407C14.4639 38.4435 14.713 39.7075 15.1792 40.8877C15.0131 40.9651 14.8535 41.0489 14.6938 41.1263C14.1957 39.8945 13.9212 38.5531 13.9212 37.1407V37.1472ZM18.6658 34.6514C19.496 34.761 20.4028 34.5675 23.0657 33.9677C25.3774 33.4518 27.9764 34.7803 28.3276 34.9674C27.9189 34.7674 25.0453 33.8452 23.1423 34.2322C19.6748 34.9351 18.6658 34.6449 18.6658 34.6449V34.6514ZM20.3517 37.6438C20.3517 37.6438 20.0069 37.7986 18.8255 37.4245C18.1486 37.2117 17.1141 37.747 17.0438 37.8179C17.0438 37.8179 18.0081 36.9924 18.851 37.2891C19.7578 37.6051 20.0707 37.7018 20.3517 37.6438ZM26.3991 25.1453H26.431L26.2842 26.3255H26.265C24.9112 26.448 23.634 26.6093 22.293 26.8479H22.2419L22.6059 25.6741C23.8831 25.442 25.1155 25.2678 26.3991 25.1388V25.1453ZM26.7184 15.4715C26.7184 15.3039 26.7184 15.1426 26.7184 14.9814V14.4913C27.2931 14.4203 27.8678 14.3558 28.4362 14.3042V15.2974C29.0109 15.2652 29.5793 15.2329 30.154 15.22V14.717C30.154 14.5493 30.154 14.3816 30.154 14.214C30.4413 14.214 30.7287 14.214 31.0097 14.214C31.2907 14.214 31.5844 14.214 31.8718 14.214C31.8718 14.3816 31.8718 14.5429 31.8718 14.7105V15.2071C32.4465 15.22 33.0212 15.2458 33.596 15.2781V14.7815C33.596 14.6138 33.596 14.4526 33.596 14.2849C34.1643 14.33 34.739 14.3945 35.3137 14.4719C35.3137 14.6332 35.3137 14.8008 35.3137 14.9621V15.4522C35.8885 15.536 36.4568 15.6328 37.0379 15.7424V14.775C37.6127 14.904 38.181 15.0459 38.7621 15.1942V15.6715C38.7621 15.8262 38.7621 15.9875 38.7621 16.1423C38.6663 16.3938 38.5641 16.6388 38.4684 16.8904H38.4556C35.914 16.3486 33.3661 16.0391 30.7862 16.0455C28.3596 16.052 25.9521 16.3486 23.5574 16.8581H23.551C23.4552 16.6195 23.3658 16.3809 23.27 16.1358V15.665C23.27 15.5038 23.27 15.349 23.27 15.1878C23.8448 15.0395 24.4195 14.904 24.9942 14.7815V15.2652C24.9942 15.4264 24.9942 15.5876 24.9942 15.7489C25.5689 15.6457 26.1437 15.5489 26.7184 15.4651V15.4715ZM40.9014 30.0725C39.4326 29.8016 37.9575 29.6146 36.476 29.4791H36.4568L36.2972 28.1764H36.3291C37.7276 28.3183 39.1261 28.5118 40.5182 28.7826H40.531L40.9461 30.0854L40.9014 30.0725ZM41.0546 30.4659H41.0674L41.3548 31.3687C40.6842 31.2333 40.0137 31.1172 39.3368 31.0076L39.1772 30.1563H39.2155C39.8349 30.253 40.448 30.3562 41.061 30.4659H41.0546ZM26.1181 29.4856H26.0798L26.2458 28.1828H26.265C26.7248 28.1377 27.1909 28.099 27.6507 28.0668L27.5422 29.3824C27.0696 29.4082 26.5907 29.4469 26.1181 29.4856ZM27.5102 29.75L27.4464 30.4788C26.0351 30.5755 24.6238 30.7303 23.2126 30.9431L23.3594 30.1563H23.3722C24.7452 29.9693 26.1245 29.8403 27.5039 29.7564L27.5102 29.75ZM23.8192 28.1828L24.0555 26.9124H24.0747C25.3071 26.7447 26.546 26.6286 27.7848 26.5512L27.6827 27.7572C26.3927 27.8539 25.1092 27.9958 23.8256 28.1828H23.8192ZM26.5651 26.3061H26.5332L26.6801 25.1195H26.6992C27.1015 25.0808 27.5039 25.0486 27.9062 25.0228L27.804 26.2159C27.3889 26.2417 26.9738 26.2674 26.5587 26.3061H26.5651ZM24.6558 25.1066L24.8665 23.9844H24.8793C26.0032 23.8297 27.1271 23.7265 28.251 23.6555C28.0594 23.9844 27.9764 24.2295 27.9764 24.2295L27.9317 24.7325C26.8397 24.8164 25.7414 24.9389 24.6558 25.1001V25.1066ZM27.0888 23.4427H27.0568L27.1846 22.3915H27.2037C27.9381 22.3206 28.6725 22.2754 29.4068 22.2432C29.4835 22.2432 29.5601 22.2432 29.6367 22.2367C29.1003 22.5398 28.7108 22.9655 28.4426 23.3524C27.9892 23.3782 27.5358 23.4105 27.0824 23.4492L27.0888 23.4427ZM36.3099 18.9283H36.3227L36.5015 19.9021H36.476C35.3393 19.7344 34.1962 19.6313 33.0468 19.5797H33.034L32.9701 18.5865H32.9957C34.1068 18.6445 35.2116 18.7542 36.3163 18.9283H36.3099ZM34.5985 17.5675C35.467 17.6707 36.3355 17.8061 37.1976 17.9674L37.4785 18.8574H37.4466C36.5462 18.6768 35.633 18.5478 34.7199 18.4511H34.7007L34.5921 17.5611L34.5985 17.5675ZM34.7773 20.9017C33.6087 20.805 32.4401 20.7663 31.2651 20.7663H31.246V19.8054H31.2651C32.4018 19.8054 33.5385 19.8505 34.6688 19.9537H34.6815L34.8029 20.9017H34.7773ZM36.7633 21.379H36.7761L36.9613 22.3657C35.7033 22.1787 34.4453 22.0561 33.1873 21.9981L33.1234 21.063H33.1426C34.3495 21.1146 35.5628 21.2178 36.7633 21.379ZM34.4772 18.4317C33.4108 18.3285 32.3379 18.2769 31.2651 18.2769H31.246V17.3612C31.3928 17.3612 31.5333 17.3612 31.6802 17.3612C32.587 17.3805 33.4874 17.445 34.3942 17.5482L34.5027 18.4382H34.4772V18.4317ZM32.7594 18.5736H32.7786L32.836 19.5668H32.8169C31.7377 19.5216 30.6585 19.5281 29.5729 19.5732H29.426L29.4899 18.58H29.509C30.071 18.5542 30.6329 18.5349 31.1949 18.5349C31.7185 18.5349 32.2422 18.5478 32.7594 18.5671V18.5736ZM31.0352 18.2769C30.0199 18.2769 29.0109 18.3285 28.0019 18.4188C27.9381 18.4188 27.8615 18.4317 27.7912 18.4382H27.7657L27.8806 17.5159C28.9343 17.4063 29.9943 17.3547 31.0544 17.3547V18.2705H31.0352V18.2769ZM28.0147 18.6832C28.4362 18.6445 28.8513 18.6123 29.2727 18.5929H29.2919L29.2344 19.5926H29.2153C28.0722 19.6506 26.9291 19.7602 25.7861 19.9215H25.7541L25.9393 18.9347H25.9521C26.6354 18.8316 27.3251 18.7477 28.0147 18.6832ZM27.5741 19.9795H27.5869C28.2446 19.915 28.9087 19.8699 29.5729 19.8441C30.0582 19.8247 30.5435 19.8118 31.0288 19.8054H31.048V20.7663H31.0288C30.7287 20.7663 30.4286 20.7728 30.1284 20.7792C29.2472 20.7986 28.3596 20.8437 27.4783 20.9211H27.4528L27.5741 19.9731V19.9795ZM29.1131 21.0823H29.1386L29.0684 22.0368C27.804 22.1077 26.546 22.2432 25.288 22.4237L25.4732 21.4112H25.4859C26.6929 21.25 27.8998 21.1404 29.1131 21.0823ZM29.2727 22.0239L29.3366 21.0759H29.3558C29.6176 21.063 29.8794 21.0565 30.1412 21.0501C30.5371 21.0436 30.9267 21.0372 31.3226 21.0372C31.8526 21.0372 32.3826 21.0436 32.9127 21.063H32.9318L32.9957 21.9981C32.6636 21.9852 32.3316 21.9788 32.0059 21.9723C31.7441 21.9014 31.4631 21.8562 31.1502 21.8562C30.8181 21.8562 30.518 21.9014 30.2498 21.9852C29.9241 21.9981 29.5984 22.011 29.2791 22.0239H29.2727ZM35.0583 22.3657H35.0775L35.2052 23.4234H35.1796C34.7262 23.3847 34.2792 23.3589 33.8258 23.3331C33.5576 22.9461 33.1681 22.5205 32.6253 22.2238C33.4363 22.2496 34.2473 22.2948 35.0519 22.3657H35.0583ZM37.3764 23.9522H37.3891L37.5935 25.0486C36.5079 24.8873 35.4223 24.7712 34.3367 24.6939L34.2984 24.2295C34.2984 24.2295 34.209 23.978 34.011 23.6297C35.1349 23.6878 36.2525 23.791 37.37 23.9457L37.3764 23.9522ZM35.5628 25.0873H35.582L35.7288 26.2803H35.6969C35.2882 26.2416 34.8731 26.2159 34.4644 26.1965L34.3623 25.0034C34.7582 25.0292 35.1605 25.055 35.5564 25.0937L35.5628 25.0873ZM38.1874 26.8801H38.2065L38.43 28.1184C37.1529 27.9249 35.8757 27.7959 34.5985 27.7121L34.4964 26.5319C35.7288 26.6028 36.9613 26.7124 38.181 26.8801H38.1874ZM35.997 28.1506H36.0162L36.1758 29.4598H36.1439C35.6714 29.4211 35.2052 29.3888 34.7326 29.363L34.6241 28.0539C35.0839 28.0797 35.5373 28.1184 35.997 28.1571V28.1506ZM38.8707 30.1111H38.8898L39.0495 30.956C37.6574 30.7432 36.2525 30.5819 34.8348 30.4852L34.771 29.7242C36.1439 29.8016 37.5105 29.9241 38.8771 30.1111H38.8707ZM38.6919 28.1506L38.4684 26.9124H38.5003C39.1453 27.0091 39.522 27.0736 39.9882 27.1639L40.1031 27.1832L40.4735 28.486C39.8413 28.357 39.3241 28.2473 38.6855 28.1506H38.6919ZM39.8732 26.8156C38.5322 26.5706 37.3508 26.4158 36.0034 26.2997H35.9843L35.8374 25.113H35.8693C37.4977 25.2743 38.7174 25.4935 39.6306 25.6741L40.0265 26.8414L39.8732 26.8156ZM37.8298 25.0808L37.6254 23.9909H37.6574C38.1555 24.0683 38.6472 24.1457 39.1453 24.2424H39.158L39.522 25.3839C38.9601 25.2678 38.3981 25.1711 37.8362 25.0808H37.8298ZM39.0112 23.9135C37.8234 23.6942 36.6356 23.5394 35.4415 23.4363H35.4223L35.2946 22.385H35.3201C36.4504 22.5011 37.5743 22.6559 38.6982 22.8752H38.711L39.0431 23.92H39.0048L39.0112 23.9135ZM37.172 22.3979L36.9868 21.4112H37.0188C37.4658 21.4822 37.9128 21.5531 38.3598 21.6369H38.3662L38.6919 22.6688C38.2959 22.5914 37.7978 22.4947 37.172 22.3979ZM38.2385 21.3532C37.172 21.1597 36.0992 21.0178 35.02 20.9211H35.0072L34.8859 19.9731H34.9114C35.9332 20.0762 36.9485 20.2181 37.9575 20.4181H37.9703L38.2704 21.3596H38.2321L38.2385 21.3532ZM37.8489 20.1278C37.4722 20.0569 37.1018 19.9924 36.725 19.9344H36.7122L36.5334 18.967H36.559C36.8974 19.025 37.2295 19.0831 37.5616 19.1476H37.5743L37.8872 20.1343H37.8553L37.8489 20.1278ZM25.0325 17.9609H25.0453C25.3199 17.8964 25.6009 17.8384 25.8755 17.7868C26.4757 17.6901 27.076 17.6127 27.6763 17.5482L27.5677 18.4704H27.5486C26.629 18.5671 25.703 18.6961 24.7899 18.8703H24.7516L25.0325 17.9674V17.9609ZM25.703 18.9734H25.7286L25.5434 19.9602H25.5306C25.1475 20.0182 24.7643 20.0827 24.3812 20.1536H24.3492L24.6622 19.154H24.6749C25.0198 19.0831 25.3582 19.025 25.703 18.9734ZM27.3506 19.9989H27.3761L27.2612 20.9469H27.2484C26.1628 21.0436 25.09 21.1855 24.0108 21.3725H23.9789L24.2662 20.4439H24.279C25.3007 20.2504 26.3289 20.102 27.3506 19.9989ZM25.2433 21.4435H25.2688L25.0836 22.456C24.5791 22.5334 24.0683 22.6237 23.5638 22.714L23.8895 21.6627H23.9022C24.3492 21.5789 24.8026 21.508 25.2497 21.4435H25.2433ZM26.9355 22.4173H26.9611L26.827 23.4621H26.8142C25.6136 23.5717 24.4195 23.7265 23.219 23.9393H23.187L23.5063 22.9074H23.5191C24.6558 22.6946 25.7924 22.5334 26.9291 22.4173H26.9355ZM24.5983 24.0167H24.6238L24.4195 25.1388C23.8575 25.2227 23.2956 25.3194 22.7272 25.4226L23.0848 24.2618H23.0976C23.5957 24.1715 24.0938 24.0876 24.5919 24.0167H24.5983ZM23.7554 26.9575H23.7873L23.551 28.2215C22.9124 28.3183 22.376 28.4279 21.7374 28.544L22.127 27.2284L23.7554 26.9575ZM25.9329 28.2151H25.9713L25.8116 29.5114H25.7924C24.3045 29.6468 22.823 29.8403 21.3415 30.1047H21.2968L21.6991 28.8213H21.7119C23.1168 28.5569 24.528 28.3505 25.9393 28.2151H25.9329ZM23.0338 30.195H23.0721L22.9252 30.9818C22.2483 31.085 21.5778 31.2075 20.9073 31.3429L21.1691 30.4981H21.1819C21.7949 30.382 22.4143 30.2853 23.0338 30.195ZM30.7159 36.7925C32.4273 36.1992 34.3623 37.7212 34.6177 37.934C34.3112 37.7083 32.1847 36.6571 30.7734 37.0956C28.1999 37.9017 27.4464 37.5728 27.4464 37.5728C28.0658 37.7018 28.7427 37.4761 30.7159 36.7989V36.7925ZM30.7159 32.794C29.2663 32.6199 27.8295 32.4071 26.3863 32.2071C25.9393 32.1426 25.4859 32.0975 25.0261 32.0588C26.993 31.8524 29.062 31.7428 31.1566 31.7428C34.0494 31.7428 36.9741 31.9556 39.7136 32.4071C39.2347 32.5102 38.743 32.6134 38.2449 32.7037C35.7608 33.1487 33.2256 33.0842 30.7223 32.794H30.7159ZM37.7468 35.1222C38.4811 35.3737 38.7238 35.4575 38.9537 35.4124C38.9537 35.4124 38.6791 35.5349 37.7276 35.2318C37.1784 35.0641 36.3419 35.4962 36.2908 35.5542C36.2908 35.5542 37.0699 34.89 37.7468 35.1222ZM41.0482 36.9215C42.4978 36.4184 44.1518 37.8372 44.1518 37.8372C44.0304 37.7147 42.2552 36.7989 41.0929 37.1536C39.0622 37.7857 38.4747 37.5277 38.4747 37.5277C38.9601 37.6244 39.4965 37.4503 41.0482 36.915V36.9215ZM42.9448 33.7807C41.54 33.3422 39.4071 34.3934 39.1133 34.6127C39.3624 34.4127 41.2909 32.8907 43.0023 33.4841C44.9628 34.1612 45.6333 34.3805 46.2463 34.258C46.2463 34.258 45.5056 34.5869 42.9448 33.7872V33.7807ZM10.5239 49.2974C10.7985 48.659 11.4945 47.2595 12.6121 46.2857L12.7525 46.1631L12.5929 46.0664C11.8074 45.6085 10.6133 45.5311 9.91722 45.5311C9.87891 45.5311 9.84698 45.5311 9.80867 45.5311C10.5175 45.0474 12.1842 44.0285 14.0042 43.6093V47.1821V47.195H14.1255C15.5559 47.195 16.6862 47.6206 17.3376 47.9431C14.5278 47.4143 11.5137 48.7944 10.5239 49.3039V49.2974ZM37.7915 47.7303C35.9843 47.7303 34.2154 48.1882 32.6445 49.033C32.3316 49.2007 32.0378 49.3813 31.7504 49.5747C31.5269 49.7231 31.3098 49.8843 31.0991 50.052C30.3264 49.4522 29.4899 48.9621 28.6022 48.588C28.417 48.5106 28.2255 48.4332 28.0403 48.3687C26.8717 47.9495 25.6392 47.7303 24.3812 47.7303C21.9993 47.7303 19.8025 46.9177 18.0464 45.5569C18.2571 45.486 18.4679 45.4215 18.6786 45.357C20.307 46.5243 22.2355 47.1692 24.2662 47.195H24.362H24.4897C25.7605 47.2079 27.0121 47.4336 28.2191 47.8657C28.417 47.9366 28.6214 48.014 28.813 48.0979C29.6176 48.4397 30.3903 48.8718 31.1055 49.3877C31.2268 49.3039 31.3418 49.22 31.4631 49.1362C31.7632 48.9363 32.0761 48.7428 32.3954 48.5751C34.0557 47.6787 35.914 47.2014 37.7851 47.2079C39.8349 47.2079 41.789 46.5823 43.4365 45.4215C43.6473 45.486 43.8516 45.5569 44.056 45.6214C42.3063 46.9499 40.1351 47.7432 37.7851 47.7432L37.7915 47.7303ZM26.7056 45.5891C26.7056 45.5891 27.8168 44.6282 28.8002 44.97C29.8475 45.3312 30.2051 45.4537 30.5371 45.3828C30.5371 45.3828 30.1412 45.5569 28.7683 45.1313C27.9828 44.8862 26.7823 45.5053 26.7056 45.5891ZM31.131 43.2868C31.0863 43.2868 31.0352 43.2868 30.9841 43.2868C24.9814 43.2803 19.2086 44.4154 14.2596 46.7113V41.6745C17.5866 39.7204 23.27 38.4822 29.6559 38.308C29.675 38.308 29.6942 38.308 29.7134 38.308C29.8922 38.308 30.0774 38.3016 30.2562 38.2951C30.2881 38.2951 30.32 38.2951 30.3583 38.2951C30.5627 38.2951 30.767 38.2951 30.9714 38.2951C30.9714 38.2951 30.9714 38.2951 30.9778 38.2951C31.1885 38.2951 31.3992 38.2951 31.6036 38.3016C31.6291 38.3016 31.661 38.3016 31.6866 38.3016C31.8718 38.3016 32.0634 38.308 32.2485 38.3145C32.2613 38.3145 32.2805 38.3145 32.2932 38.3145C38.6855 38.4951 44.3625 39.7333 47.6895 41.6939V46.7306C42.7852 44.4476 37.0699 43.2932 31.1182 43.2932L31.131 43.2868ZM52.166 45.5311C52.1341 45.5311 52.0958 45.5311 52.0574 45.5311C51.355 45.5311 50.1609 45.6085 49.3818 46.0664L49.2221 46.1631L49.3626 46.2857C50.4801 47.2595 51.1762 48.659 51.4508 49.2974C50.461 48.7879 47.4405 47.4078 44.6371 47.9366C45.2948 47.6142 46.4187 47.1885 47.8492 47.1885H47.9705V43.6093C49.7969 44.0285 51.4572 45.0474 52.166 45.5311ZM52.8621 41.9776C52.7854 42.2614 52.6833 42.5193 52.5364 42.7773C52.4917 42.8547 52.4406 42.9321 52.3895 43.0159C51.9808 43.5319 51.5338 44.0349 51.0485 44.5315C50.9208 44.4605 50.793 44.3961 50.6589 44.3251C50.7483 44.2993 50.8378 44.2671 50.9144 44.2219C51.106 44.1252 51.2656 43.9769 51.3997 43.7705C51.3997 43.7705 51.3997 43.7705 51.3997 43.764C51.355 43.764 51.3167 43.764 51.2656 43.764C51.1634 43.764 51.0613 43.764 50.9719 43.7705C50.4738 43.7769 50.0587 43.7318 49.7266 43.6608C49.6628 43.6479 49.6181 43.5835 49.6372 43.519C49.65 43.4545 49.7138 43.4093 49.7777 43.4287C50.097 43.4996 50.4929 43.5448 50.9655 43.5383C51.0613 43.5383 51.157 43.5383 51.2528 43.5319C51.3486 43.5319 51.5338 43.5577 51.604 43.4932C51.4125 43.0675 51.2273 42.6612 51.0421 42.2807C50.8377 41.868 50.627 41.4746 50.4035 41.1005C50.3716 41.0425 50.3844 40.9715 50.4482 40.9328C50.5057 40.8942 50.5759 40.9135 50.6079 40.9715C50.8377 41.352 51.0485 41.7519 51.2592 42.1711C51.4508 42.558 51.6296 42.9579 51.8148 43.3706C51.8467 43.3642 52.3001 42.7257 52.3384 42.6677C52.4725 42.4291 52.5747 42.184 52.6449 41.926C52.6577 41.8615 52.728 41.8293 52.7918 41.8422C52.8493 41.8615 52.8876 41.926 52.8685 41.9905L52.8621 41.9776ZM58.9031 37.5599C58.4497 37.6373 57.9899 37.6954 57.5173 37.7341C57.0767 37.7728 56.6297 37.7986 56.1635 37.8244C56.1635 37.8566 56.5914 38.5402 56.6361 38.5982C56.8149 38.8175 57.0065 39.0046 57.23 39.1722C57.2811 39.2109 57.2938 39.2883 57.2491 39.3464C57.2108 39.3979 57.1342 39.4108 57.0767 39.3722C56.8404 39.1916 56.6297 38.9916 56.4381 38.753C56.3104 38.5918 56.1891 38.4048 56.0741 38.2049C56.0678 38.2371 56.055 38.2758 56.0422 38.3145C55.7485 39.2174 56.5531 39.7849 57.3705 40.1138C56.9937 40.0106 56.5212 40.0171 56.0358 40.1138C55.6016 40.1976 55.1737 40.3524 54.8034 40.5717C55.3398 39.4753 55.7165 38.3596 55.9528 37.231C55.9656 37.2052 55.972 37.173 55.9847 37.1472C56.0231 37.0376 56.055 36.9473 56.0869 36.8505C56.2721 36.3668 56.4701 35.9799 56.668 35.6897C56.7063 35.6316 56.783 35.6187 56.8341 35.651C56.8915 35.6897 56.9043 35.7671 56.8724 35.8251C56.6872 36.1024 56.4956 36.4765 56.3232 36.9344C56.2913 37.0311 56.2593 37.1214 56.221 37.2181C56.1955 37.3149 56.0933 37.4761 56.1252 37.5728C56.6042 37.547 57.064 37.5212 57.4982 37.4825C57.9644 37.4438 58.4178 37.3858 58.8648 37.3084C58.935 37.2955 58.9989 37.3471 59.0053 37.4116C59.018 37.4761 58.9733 37.5406 58.9031 37.5535V37.5599Z" fill="#C2ACFF"/>
</g>
<defs>
<clipPath id="clip0_205_798">
<rect width="213" height="51" fill="white"/>
</clipPath>
</defs>
</svg>
