<?xml version="1.0" encoding="UTF-8"?>
<svg id="logo" xmlns="http://www.w3.org/2000/svg" viewBox="0 0 591.04 244.78">
  <defs>
    <style>
      .cls-1 {
        fill: #c2acff;
      }
    </style>
  </defs>
  <g id="icone">
    <g>
      <path id="_1" data-name="1" class="cls-1" d="M117.04,244.78c3.73-4.16,6.01-9.65,6.06-15.67.05,6.02,2.33,11.5,6.06,15.67h17.73v-39.66c-13.07,0-23.68,10.55-23.79,23.59-.11-13.05-10.72-23.59-23.79-23.59v39.66h17.73Z"/>
      <path id="_2" data-name="2" class="cls-1" d="M197.4,195.83l-.47-10.34c-.01-.26-.05-.52-.11-.77-.87-3.52-3.42-6.37-6.83-7.62-3.41-1.25-7.2-.72-10.13,1.42-3.8,2.76-5.39,7.62-3.98,12.09l6.47,20.44-21.22-14.02-8.64,6.28,23.31,32.09,6.42-4.66-14.34-19.74,17.91,11.83h0s.43.28.43.28l1.11.74s.05.03.07.05l2.23,1.46,4.54-3.3-1.38-4.32-9.34-29.52c-.38-1.21.05-2.53,1.08-3.28,1.15-.83,2.3-.55,2.75-.38.03,0,.05.02.08.03,1,.4,1.66,1.38,1.71,2.46l.42,9.14c.26,5.67,3.64,10.62,8.82,12.92l8.49,3.77,7.41-5.39-12.69-5.63c-2.4-1.07-4-3.4-4.12-6.03Z"/>
      <path id="_3" data-name="3" class="cls-1" d="M75.18,192.65l-3.03-.12-1.05-2.84c-1.13-3.06-3.15-5.36-5.58-6.87h.01s-10.29-7.48-10.29-7.48l-8.03,11.06-15.28,21.03,6.42,4.66,15.15-20.86c1.93-2.66,5.65-3.25,8.31-1.32h0c2.66,1.93,3.25,5.65,1.32,8.31l-15.15,20.86,6.42,4.66,15.15-20.86c1.93-2.66,5.65-3.25,8.31-1.32h0c2.66,1.93,3.25,5.65,1.32,8.31l-15.15,20.86,6.42,4.66,15.28-21.03c6.42-8.84.4-21.27-10.52-21.71Z"/>
      <path id="_4" data-name="4" class="cls-1" d="M233.17,90.74l-2.42-7.44c-8.7,2.49-13.82,3.66-22.13,4.8l-9.29,1.18-4.9-15.09,37.72-12.26,2.45,7.54-30.73,8.11,1.22,3.74,31.96-4.31,4.9,15.09-28.37,15.37,1.2,3.68,29.62-11.51,2.45,7.55-37.72,12.26-4.9-15.09,8.21-4.5c7.29-3.92,12.22-6.03,20.72-9.12Z"/>
      <polygon id="_5" data-name="5" class="cls-1" points="214.3 37.36 190.98 69.44 184.57 64.78 187.37 60.93 180.95 56.27 183.75 52.42 170.91 43.09 168.11 46.94 161.7 42.28 158.9 46.13 152.48 41.47 175.79 9.38 182.21 14.05 167.29 34.58 173.71 39.24 176.51 35.39 179.71 37.73 182.51 33.87 188.93 38.54 186.13 42.39 189.34 44.72 186.54 48.57 192.96 53.23 207.88 32.7 214.3 37.36"/>
      <path id="_6" data-name="6" class="cls-1" d="M146.9,39.65l-23.79-13.51-23.79,13.51V0h18.75v9.16s5.04-3.4,5.04-3.4l5.04,3.4V0h18.75v39.65Z"/>
      <path id="_7" data-name="7" class="cls-1" d="M61.96,45.79c6.52,6.8,6.19,14.23.14,18.62-4.82,3.5-8.72,2.24-15.89-7.55l-9.89-13.46c-3.4-4.6-1.9-7.85.24-9.41,3.21-2.34,6.13-.42,7.63,1.65,1.27,1.74,2.28,4.91,3.01,6.8l7.44,19.33c1.57,4.01,6.48,2.24,4.89-2.13l-9.34-25.58c-1.8-4.89-2.37-8.26.19-10.12,1.76-1.28,4.15-.97,9.4,1.91l11.22,6.11c2.92,1.6,6.37,4.67,8.32,8.4l1.34,2.56c1.2,2.29,3.53,2.21,5.29.93,2.14-1.56,2.17-4.18.49-6.49-.83-1.14-2.65-2.6-3.64-3.24l-15.28-9.92c-4.64-3.01-6.85-7.73-2.71-10.74,5.01-3.64,9.52,1.27,13.79,7.15l6.22,8.56c6.63,9.13,6.37,14.16,1.93,17.38-3.02,2.2-6.73,2.41-11.44-.62l-17.79-11.44c-1.66-1.08-2.78-1.02-3.51-.49-1.22.89-.86,2.61,1.72,5.26l6.24,6.5Z"/>
      <path id="_8" data-name="8" class="cls-1" d="M13.26,64.4c.12-.35.28-.66.51-.92.22-.26.48-.47.77-.61.29-.15.6-.23.95-.26.34-.03.69.02,1.05.13l32.8,10.66c.35.12.66.28.92.51.26.22.47.48.61.77s.23.6.26.95c.03.34-.02.69-.13,1.05l-3.39,10.43c-.1.31-.24.6-.41.86-.17.26-.37.48-.59.68-.23.19-.48.35-.74.47-.27.12-.56.21-.88.26l-14.94.7c-.5.02-1,.15-1.43.41-.1.06-.19.12-.27.19-.29.22-.48.48-.57.76s-.09.6.01.95c.03.1.07.2.11.31.2.45.52.84.9,1.15l11.68,9.37c.23.22.42.46.56.72.14.26.25.54.32.83.07.29.1.59.08.9-.02.31-.07.61-.17.92l-3.39,10.43c-.12.36-.29.68-.51.94-.22.26-.48.47-.77.61-.29.15-.6.23-.95.25-.34.02-.69-.02-1.04-.14L1.82,108c-.35-.12-.66-.28-.93-.5-.26-.22-.47-.47-.62-.76-.15-.29-.23-.6-.26-.95-.03-.34.02-.7.14-1.06l2.99-9.21c.12-.35.29-.67.51-.93.22-.27.48-.47.78-.62.29-.15.61-.23.96-.26.35-.03.7.02,1.05.15l10.95,3.76c.24.08.46.09.65.03.19-.06.34-.16.44-.29.1-.14.14-.3.13-.49s-.1-.38-.26-.58l-9.86-6.48c-.43-.45-.72-.97-.86-1.56-.14-.59-.11-1.2.09-1.83l.9-2.76c.2-.63.54-1.14,1-1.53.46-.39,1-.64,1.61-.75l11.8.55c.24-.06.42-.16.55-.31.12-.15.19-.31.19-.48,0-.17-.06-.33-.18-.49-.12-.16-.31-.27-.56-.36l-11.06-3.39c-.35-.12-.67-.28-.93-.5-.27-.22-.48-.48-.63-.77s-.24-.61-.26-.96c-.03-.34.02-.7.14-1.06l2.99-9.21Z"/>
      <path id="_9" data-name="9" class="cls-1" d="M33.4,125.46c.31-.22.23.27.08.38-2.53,1.57-5.53,1.86-8.22,2.96-6.33,2.34-12.6,4.84-19.08,6.72-1.96.41-3.88,1.09-5.9,1.46-.57.01-.15-.76.18-.75,11.28-2.46,21.97-7.2,32.94-10.76ZM44.72,158.08c.1.02.16.06.23-.02.25-.25.54.05.83.07.45.2.53,1.33,1.07,1.09.32-.05.9-.29,1.1.16.05.16.12.36-.02.52-.11.09-.16.23-.2.41-.04.18-.1.26-.23.31-.54.23-.63.84-.96,1.29-.28.61-.99.9-1.03,1.66-.11.38-.28.61-.49.85-.28.15-.22.36.08.38.09-.03.15.01.18.11.15.18.39.16.57.16.51-.05.98-.2,1.47-.31.13-.04.18-.17.19-.29,0-.58.57-.3.79-.66.18-.17.33-.16.45.08.26.49.59-.08.93.22.14.13.22.1.28-.03.09-.32.41-.36.6-.48.09-.03.16-.11.23-.02.02.05.11.19.08.26-.04.47-.28.9-.27,1.35.03.1,0,.17-.04.18-.34.11-.37.47-.5.8-.12.21-.13.33.15.47.06.04.12.08.19,0,.13-.04.17-.06.24.15.14.59-.02,1.1-.27,1.52-.4.82-.56,1.79-.92,2.6-.21.53-.37,1.5-1,1.47-.31-.07-.59.25-.84.04-1.45-.22-2.87.53-4.24.86-2.73.83-5.44,1.71-8.07,2.68-6.18,2.35-12.62,4.04-18.91,6.09-.8.32-1.62.58-2.4.95-.17.06-.3.1-.36-.23-.02-.05-.08-.09-.14-.13-.29-.02-.8-.26-.6-.67.03-.07.05-.13,0-.17-.14-.13.05-.42-.18-.4-.19,0-.18-.11-.19-.28.04-.18.08-.49-.19-.57-.18-.11-.27-.26-.2-.45.1-.43-.05-1.02.35-1.26.27-.2.38-.58.51-.91.05-.13-.11-.19-.2-.17-.83.21-.2-.45-.04-.85.19-.29-.3-.19-.17-.52.3-.67.46-1.82.81-2.33.22.1-.04.3.09.43.06.04.18.11.23-.02.16-.11.27-.2.35-.4.16-.4.55-.35.84-.5.14-.16.18.11.13.25s-.02.24.11.19c.81-.15,1.55-.5,2.34-.7.04-.01.1.02.13-.04,0-.29.12-.21.28-.15.1.02.26-.08.36-.06.36-.06.77-.13,1.06-.4.22.1.4-.07.64-.09.09-.03.21.05.26-.08.07-.08.27.09.3-.1.36-.06.62-.14.96-.26,1.12-.36,2.3-.69,3.35-1.26,2.68-.81,5.46-1.66,8.11-2.69,1.91-.56,3.66-1.48,5.53-2.03.3-.1.68-.11.85-.45.1-.15.15-.28.26-.37-5.17-.97-10.37-1.18-15.52-1.8-2.62-.3-5.3-.64-7.95-.75-1.15-.03-2.38-.44-3.39.12-.19,0-.14-.3-.38-.28-.91-.16-1.79-.23-2.72-.32-.19,0-.16-.35-.24-.44-.17-.23,0-.29.04-.47-.16-.06-.38,0-.42-.27-.03-.1-.11-.19-.17-.23-.2-.34-.25-1.07-.12-1.4.16-.23-.11-.48-.26-.66-.09-.14-.17-.23-.33-.12-.45.09-.42-.84-.12-.94.17-.06-.03-.39.14-.45,6.4-7.37,13.71-13.89,19.81-21.45-8.66,2.64-16.78,6.77-25.71,8.41-.58.13-.73-.91-.47-1.29.04-.01.09-.03.11-.09.03-.07.13-.04.1-.15-.11-.19-.39-.16-.59-.21-.32.05-.64-.37-.69-.81-.04-.27.41-.94.05-1.17-.22-.1-.38-.57-.25-.78.14-.16.13-.33.08-.49-.16-.64.23-1.05.19-1.61-.08-.38.13-.62.41-.65.29.31.6.09.88.06.27-.2.59-.08.93-.07.63-.26,1.33-.15,1.93-.51.47-.15,1.13-.02,1.52-.44.03-.07.07-.08.07-.08.31.07.47-.32.75-.19.15.01.28-.32.46-.04,1.18-.33,2.36-.94,3.52-1.32,5.53-2.03,11.16-3.57,16.61-5.68,1.81-.88,3.74-1.39,5.52-2.2.25-.25.49-.85.89-.63.1.02.21.05.27-.03.16-.11.4-.07.51.12.15.18.6.38.81.31.23-.02.41-.36.65-.21.27.09.52.29.79.38.84.24.05,1.48.15,2.08,0,.29-.12.5-.12.79.06.33.1.6.07.95-.05.13-.37.18-.39.41-.38.87-.87,1.72-1.01,2.74,0,.12.02.22.15.18s.31.07.39.16c.29.31.5-.22.76.15.32.41.22.68-.03.93-.11.09-.14.16-.07.37.05.16,0,.29-.11.38-.91.87-1.64,1.97-2.58,2.74-3.09,3.36-6.31,6.48-9.42,9.79-2.11,2.01-3.97,4.34-6.07,6.35-.26.37.57.16.74.22,4.09.74,8.25.66,12.36,1.16,3.96.78,7.96,1.21,11.94,1.76,0,0,.06.04.1.02.03-.07-.02-.22.1-.15.16.06.37.11.51.24.12.08-.04.18-.04.3h0ZM21.88,156.3c.33.12.65.25.95.15.16-.11.32-.05.48.02.69.23,1.35-.09,2.01.04.21.05.45.2.69.06.26-.08.55.22.81.14.75-.19,1.5.38,2.25.19.66.13,1.39.18,2.08.25.52.29.99-.03,1.49.21.39.16.74-.07,1.1.16.2.17.34-.11.58-.13.39.04.86.3,1.24.17.55.22,1.16.2,1.67.32.17-.06.34,0,.45.08.28.14.57-.01.87.18.33-.16.69.06,1.04.12.52,0,1.14.15,1.61.28.59-.08,1.15.03,1.74-.05.23-.02.47-.15.74-.07.1.02.1-.15-.05-.16-3.84-.71-7.72-.77-11.6-1.29-3.17-.24-6.6-1.13-9.64-1.12-1.27-.1-2.58-.31-3.83-.37-.1-.02-.21-.05-.16.11,1.02.65,2.4.37,3.47.71Z"/>
      <path id="_10" data-name="10" class="cls-1" d="M204.26,140.41l4.9-15.07,37.7,12.25-3.28,10.08-15.04-4.89c-.68-.22-1.44.13-1.66.81-.27.82,0,1.36.83,1.63l15.08,4.9-6.55,20.16-15.04-4.89c-.68-.22-1.44.13-1.66.81-.27.82,0,1.36.83,1.63l15.08,4.9-3.28,10.08-37.7-12.25,4.9-15.09,13.38-3.09c.73-.17,1.02-1.05.53-1.62l-9-10.38Z"/>
    </g>
  </g>
  <g id="nome">
    <path class="cls-1" d="M318.94,72.44c0,2.7-.4,5.27-1.19,7.7-.79,2.43-1.99,4.49-3.57,6.17-1.37,1.4-2.98,2.44-4.84,3.12-1.86.68-4.07,1.02-6.65,1.02s-4.76-.33-6.65-1c-1.89-.67-3.47-1.67-4.74-3-1.4-1.46-2.51-3.34-3.34-5.65-.83-2.3-1.24-4.84-1.24-7.6s.42-5.36,1.26-7.79c.84-2.43,2.01-4.46,3.5-6.08,1.34-1.43,2.92-2.48,4.74-3.15,1.83-.67,4.03-1,6.6-1s4.66.32,6.55.95c1.89.64,3.54,1.65,4.93,3.05,1.59,1.59,2.76,3.55,3.5,5.89.75,2.33,1.12,4.79,1.12,7.36ZM293.07,72.3c0,2.54.22,4.79.67,6.74.45,1.95,1.08,3.57,1.91,4.84.76,1.18,1.74,2.06,2.93,2.64,1.19.59,2.66.88,4.41.88,3.14,0,5.49-1.05,7.05-3.15.82-1.14,1.46-2.65,1.91-4.5.44-1.86.67-4.07.67-6.65s-.22-4.81-.67-6.72c-.45-1.91-1.1-3.46-1.96-4.67-.83-1.21-1.85-2.1-3.07-2.67-1.22-.57-2.64-.86-4.26-.86s-2.92.27-4.07.81c-1.16.54-2.12,1.32-2.88,2.33-1.75,2.32-2.62,5.97-2.62,10.96Z"/>
    <path class="cls-1" d="M348.72,76.88c0,2.07-.3,4.02-.91,5.86-.6,1.84-1.45,3.38-2.53,4.62-1.78,2.07-4.34,3.1-7.67,3.1-1.62,0-3.07-.37-4.34-1.12-1.27-.75-2.4-2.14-3.38-4.17l-1.43,4.81h-3.1v-33.88l-3.67-.91v-2.38h9.15v14.2c.95-1.21,2.02-2.05,3.19-2.53,1.18-.48,2.49-.71,3.96-.71,1.62,0,3.09.24,4.41.71s2.39,1.24,3.22,2.29c.98,1.21,1.75,2.69,2.29,4.43.54,1.75.81,3.64.81,5.67ZM330.85,77.02c0,1.94.15,3.56.45,4.86.3,1.3.71,2.35,1.21,3.15.51.79,1.12,1.41,1.83,1.86.71.45,1.61.67,2.69.67s1.91-.21,2.6-.62c.68-.41,1.25-.95,1.69-1.62.51-.83.89-1.88,1.14-3.17.25-1.29.38-2.82.38-4.6s-.14-3.47-.41-4.88c-.27-1.41-.63-2.56-1.07-3.46-.45-.83-1.01-1.45-1.69-1.88-.68-.43-1.58-.64-2.69-.64-.95,0-1.83.17-2.62.5-.79.33-1.41.9-1.86,1.69-.51.86-.91,1.95-1.21,3.29-.3,1.33-.45,2.95-.45,4.86Z"/>
    <path class="cls-1" d="M362.73,87.84c1.68,0,3.09-.33,4.22-.98,1.13-.65,1.69-1.56,1.69-2.74,0-.95-.34-1.72-1.02-2.31-.68-.59-1.54-1.08-2.57-1.48-1.03-.4-2.09-.74-3.17-1.02-1.3-.41-2.56-.92-3.77-1.52s-2.19-1.42-2.95-2.45c-.76-1.03-1.14-2.36-1.14-3.98,0-2.29.83-4.12,2.5-5.5s4.01-2.07,7.03-2.07c2.76,0,4.96.58,6.58,1.74,1.62,1.16,2.43,2.69,2.43,4.6,0,1.02-.26,1.82-.79,2.41-.52.59-1.25.88-2.17.88s-1.64-.23-2.17-.69c-.52-.46-.79-1.04-.79-1.74,0-.57.16-1.1.48-1.6.32-.49.73-.85,1.24-1.07-.45-.64-1.04-1.11-1.79-1.43-.75-.32-1.69-.48-2.83-.48-1.65,0-2.9.32-3.74.95-.84.64-1.26,1.56-1.26,2.76,0,.89.21,1.61.62,2.17.41.56,1.01,1.02,1.79,1.38.78.37,1.71.72,2.79,1.07,1.17.35,2.34.72,3.5,1.12,1.16.4,2.2.89,3.12,1.48.92.59,1.66,1.32,2.22,2.19.56.87.83,1.93.83,3.17,0,1.65-.48,3.06-1.43,4.22-.95,1.16-2.26,2.04-3.93,2.65-1.67.6-3.55.91-5.65.91-2.92,0-5.24-.56-6.96-1.69-1.72-1.13-2.57-2.64-2.57-4.55,0-1.17.31-2.1.93-2.79.62-.68,1.41-1.02,2.36-1.02.76,0,1.44.22,2.03.67.59.45.88,1.05.88,1.81,0,.57-.17,1.13-.5,1.67-.33.54-.74.94-1.21,1.19.38.57,1,1.06,1.86,1.48.86.41,1.97.62,3.34.62Z"/>
    <path class="cls-1" d="M400.24,77.64h-16.63c0,2.22.32,4.07.95,5.53.57,1.24,1.35,2.16,2.33,2.76.98.6,2.14.91,3.48.91,1.43,0,2.8-.31,4.12-.93,1.32-.62,2.47-1.53,3.46-2.74l2.14,1.67c-1.11,1.56-2.55,2.88-4.31,3.98-1.76,1.1-3.98,1.64-6.65,1.64-2.26,0-4.23-.47-5.91-1.41s-2.97-2.31-3.86-4.12c-.48-.98-.83-2.08-1.05-3.29-.22-1.21-.33-2.51-.33-3.91,0-4.45,1.02-7.89,3.07-10.32,2.05-2.43,4.9-3.65,8.55-3.65,3.37,0,6,1.01,7.91,3.03,1.91,2.02,2.86,4.81,2.86,8.36,0,.35,0,.68-.02.98-.02.3-.06.8-.12,1.5ZM389.42,66.77c-3.5,0-5.42,2.7-5.77,8.1h11.1v-1.38c0-2.16-.47-3.82-1.41-4.98-.94-1.16-2.25-1.74-3.93-1.74Z"/>
    <path class="cls-1" d="M418.58,67.44c-.06-.06-.13-.1-.19-.12-.06-.02-.13-.02-.19-.02-.38,0-.79.2-1.24.6-.45.4-.86.89-1.24,1.48-.38.59-.7,1.17-.95,1.74-.38,1.08-.71,2.22-1,3.41s-.43,2.57-.43,4.12v8.05l5.15.91v2.38h-14.25v-2.38l3.67-.91v-19.59l-3.67-.91v-1.95h7.67l1.05,6.29h.19c.73-2.16,1.71-3.83,2.95-5,1.24-1.17,2.6-1.76,4.1-1.76,1.24,0,2.27.39,3.1,1.17.83.78,1.24,1.82,1.24,3.12,0,.95-.27,1.77-.81,2.45-.54.68-1.29,1.02-2.24,1.02-1.08,0-1.88-.28-2.38-.83-.51-.56-.76-1.22-.76-1.98,0-.22,0-.4.02-.55.02-.14.09-.39.21-.74Z"/>
    <path class="cls-1" d="M442.6,90.46h-5.77l-8.34-22.97-2.67-.91v-2.38h11.53v2.38l-3.14.91,6.1,18.54h.19l6.24-18.49-2.96-.91v-2.38h9.86v2.38l-2.76.91-8.29,22.92Z"/>
    <path class="cls-1" d="M455.56,84.36c0-2.54,1.19-4.53,3.57-5.98,2.38-1.44,6.2-2.56,11.44-3.36-.13-1.72-.3-3.04-.52-3.98-.22-.94-.51-1.71-.86-2.31-.41-.79-.96-1.4-1.64-1.81-.68-.41-1.49-.62-2.41-.62-.76,0-1.45.14-2.07.41s-1.04.66-1.26,1.17c.44.25.76.63.95,1.12.19.49.29.93.29,1.31,0,.79-.32,1.47-.95,2.03-.64.56-1.4.83-2.29.83s-1.6-.29-2.14-.88c-.54-.59-.81-1.37-.81-2.36,0-1.3.46-2.41,1.38-3.34.92-.92,2.1-1.62,3.53-2.1s2.88-.71,4.34-.71,2.67.21,3.81.62c1.14.41,2.1.97,2.86,1.67,2.29,2.1,3.43,5.61,3.43,10.53v6.48c0,1.56.1,2.64.31,3.24.21.6.66.91,1.36.91h2.14v1.86c-2.67.92-4.7,1.38-6.1,1.38-1.02,0-1.7-.35-2.05-1.05-.35-.7-.52-2.08-.52-4.15h-.19c-.99,1.62-2.29,2.89-3.91,3.81-1.62.92-3.37,1.38-5.24,1.38-2,0-3.57-.54-4.72-1.62-1.14-1.08-1.72-2.57-1.72-4.48ZM464.52,87.27c.76,0,1.59-.22,2.48-.67.89-.44,1.64-1.08,2.24-1.91.41-.51.76-1.18,1.05-2.03.29-.84.43-1.85.43-3.03,0-.44-.02-.91-.05-1.41-.03-.49-.08-.96-.14-1.41-2.35.48-4.19,1-5.53,1.57-1.33.57-2.28,1.24-2.83,2-.56.76-.83,1.72-.83,2.86,0,1.37.31,2.38.93,3.03.62.65,1.37.98,2.26.98Z"/>
    <path class="cls-1" d="M480.72,67.06v-2.14l4.62-.67.62-5.96,4.81-.67v6.62h6.1v2.81h-6.1v16.15c0,1.08.02,1.82.05,2.22.03.4.09.72.19.98.1.22.27.37.52.45.25.08.67.12,1.24.12h3.34v1.81c-1.71.57-3.22.99-4.53,1.26s-2.33.41-3.1.41c-1.43,0-2.35-.59-2.76-1.76-.13-.38-.22-.87-.29-1.48-.06-.6-.1-1.49-.1-2.67v-17.49h-4.62Z"/>
    <path class="cls-1" d="M523.9,77.02c0,2.03-.3,3.96-.91,5.79-.6,1.83-1.46,3.34-2.57,4.55-.99,1.08-2.2,1.87-3.65,2.36-1.45.49-3.12.74-5.03.74s-3.53-.24-4.96-.71-2.65-1.25-3.67-2.33c-1.08-1.21-1.91-2.69-2.5-4.46s-.88-3.66-.88-5.69.29-3.98.88-5.84c.59-1.86,1.45-3.38,2.6-4.55,1.02-1.11,2.24-1.91,3.67-2.38s3.08-.71,4.96-.71,3.53.24,4.98.71c1.45.48,2.68,1.26,3.69,2.34,1.11,1.18,1.95,2.66,2.53,4.46.57,1.79.86,3.71.86,5.74ZM506.55,81.83c.25,1.18.65,2.15,1.19,2.93.54.78,1.22,1.36,2.05,1.74.83.35,1.6.52,2.33.52s1.48-.19,2.24-.57c1.49-.92,2.46-2.84,2.91-5.77.25-1.49.36-2.95.31-4.36-.05-1.41-.21-2.74-.5-3.98-.22-1.14-.61-2.1-1.17-2.88-.56-.78-1.25-1.36-2.07-1.74-.79-.35-1.57-.52-2.31-.52s-1.5.19-2.26.57c-1.52.92-2.49,2.83-2.91,5.72-.48,3.05-.41,5.83.19,8.34ZM510.08,59.53l2.33-3.62c.95-1.46,1.74-2.47,2.36-3.03.62-.56,1.33-.83,2.12-.83.86,0,1.48.17,1.86.52.38.35.57.79.57,1.33,0,.48-.3,1.03-.91,1.67-.6.64-1.65,1.51-3.14,2.62l-1.81,1.33h-3.38Z"/>
    <path class="cls-1" d="M542.2,67.44c-.06-.06-.13-.1-.19-.12-.06-.02-.13-.02-.19-.02-.38,0-.79.2-1.24.6-.45.4-.86.89-1.24,1.48-.38.59-.7,1.17-.95,1.74-.38,1.08-.71,2.22-1,3.41s-.43,2.57-.43,4.12v8.05l5.15.91v2.38h-14.25v-2.38l3.67-.91v-19.59l-3.67-.91v-1.95h7.67l1.05,6.29h.19c.73-2.16,1.71-3.83,2.95-5,1.24-1.17,2.6-1.76,4.1-1.76,1.24,0,2.27.39,3.1,1.17.83.78,1.24,1.82,1.24,3.12,0,.95-.27,1.77-.81,2.45-.54.68-1.29,1.02-2.24,1.02-1.08,0-1.88-.28-2.38-.83-.51-.56-.76-1.22-.76-1.98,0-.22,0-.4.02-.55.02-.14.09-.39.21-.74Z"/>
    <path class="cls-1" d="M554.3,67.54l-3.67-.91v-2.38h9.15v22.45l3.67.91v2.38h-12.82v-2.38l3.67-.91v-19.16ZM553.73,56.81c0-.98.29-1.77.88-2.36.59-.59,1.39-.88,2.41-.88s1.83.29,2.43.88c.6.59.91,1.37.91,2.36s-.29,1.72-.88,2.31c-.59.59-1.41.88-2.45.88s-1.86-.29-2.43-.86c-.57-.57-.86-1.35-.86-2.34Z"/>
    <path class="cls-1" d="M591.04,77.02c0,2.03-.3,3.96-.91,5.79-.6,1.83-1.46,3.34-2.57,4.55-.99,1.08-2.2,1.87-3.65,2.36-1.45.49-3.12.74-5.03.74s-3.53-.24-4.96-.71-2.65-1.25-3.67-2.33c-1.08-1.21-1.91-2.69-2.5-4.46s-.88-3.66-.88-5.69.29-3.98.88-5.84c.59-1.86,1.45-3.38,2.6-4.55,1.02-1.11,2.24-1.91,3.67-2.38s3.08-.71,4.96-.71,3.53.24,4.98.71c1.45.48,2.68,1.26,3.69,2.34,1.11,1.18,1.95,2.66,2.53,4.46.57,1.79.86,3.71.86,5.74ZM573.7,81.83c.25,1.18.65,2.15,1.19,2.93.54.78,1.22,1.36,2.05,1.74.83.35,1.6.52,2.33.52s1.48-.19,2.24-.57c1.49-.92,2.46-2.84,2.91-5.77.25-1.49.36-2.95.31-4.36-.05-1.41-.21-2.74-.5-3.98-.22-1.14-.61-2.1-1.17-2.88-.56-.78-1.25-1.36-2.07-1.74-.79-.35-1.57-.52-2.31-.52s-1.5.19-2.26.57c-1.52.92-2.49,2.83-2.91,5.72-.48,3.05-.41,5.83.19,8.34Z"/>
    <path class="cls-1" d="M286.44,129.91c0-2.1.29-4.07.86-5.91.57-1.84,1.37-3.34,2.38-4.48.92-1.02,2.02-1.79,3.29-2.31,1.27-.52,2.71-.79,4.34-.79,1.46,0,2.76.27,3.91.81,1.14.54,2.18,1.51,3.1,2.91v-11.39l-3.67-.91v-2.38h9.15v33.88l3.67.91v2.38l-8.24.48-.38-3.91c-.98,1.46-2.1,2.48-3.34,3.05-1.24.57-2.65.86-4.24.86-1.69,0-3.15-.25-4.38-.76s-2.29-1.25-3.14-2.24c-.99-1.17-1.78-2.65-2.38-4.41-.6-1.76-.91-3.69-.91-5.79ZM304.31,129.96c0-1.87-.15-3.51-.45-4.91-.3-1.4-.69-2.48-1.17-3.24-.48-.79-1.08-1.41-1.81-1.83-.73-.43-1.64-.64-2.72-.64-.92,0-1.78.17-2.57.52-.79.35-1.43.92-1.91,1.72-.48.76-.83,1.84-1.05,3.24s-.33,2.95-.33,4.67c0,1.88.13,3.5.41,4.88.27,1.38.63,2.49,1.07,3.31.48.79,1.1,1.41,1.86,1.86.76.45,1.65.67,2.67.67.89,0,1.72-.17,2.5-.52.78-.35,1.41-.91,1.88-1.67.51-.86.91-1.97,1.19-3.34.29-1.37.43-2.94.43-4.72Z"/>
    <path class="cls-1" d="M316.51,137.01c0-2.54,1.19-4.54,3.57-5.98s6.2-2.57,11.44-3.36c-.13-1.71-.3-3.04-.52-3.98-.22-.94-.51-1.71-.86-2.31-.41-.79-.96-1.4-1.64-1.81-.68-.41-1.49-.62-2.41-.62-.76,0-1.45.14-2.07.41s-1.04.66-1.26,1.17c.44.25.76.63.95,1.12.19.49.29.93.29,1.31,0,.79-.32,1.47-.95,2.02-.64.56-1.4.83-2.29.83s-1.6-.29-2.14-.88-.81-1.37-.81-2.36c0-1.3.46-2.41,1.38-3.34.92-.92,2.1-1.62,3.53-2.1s2.88-.71,4.34-.71,2.67.21,3.81.62c1.14.41,2.1.97,2.86,1.67,2.29,2.1,3.43,5.61,3.43,10.53v6.48c0,1.56.1,2.64.31,3.24.21.6.66.91,1.36.91h2.14v1.86c-2.67.92-4.7,1.38-6.1,1.38-1.02,0-1.7-.35-2.05-1.05-.35-.7-.52-2.08-.52-4.15h-.19c-.99,1.62-2.29,2.89-3.91,3.81-1.62.92-3.37,1.38-5.24,1.38-2,0-3.57-.54-4.72-1.62s-1.72-2.57-1.72-4.48ZM325.47,139.92c.76,0,1.59-.22,2.48-.67.89-.44,1.64-1.08,2.24-1.91.41-.51.76-1.18,1.05-2.02s.43-1.85.43-3.03c0-.44-.02-.91-.05-1.41-.03-.49-.08-.96-.14-1.41-2.35.48-4.19,1-5.53,1.57-1.33.57-2.28,1.24-2.83,2-.56.76-.83,1.71-.83,2.86,0,1.37.31,2.38.93,3.03.62.65,1.37.98,2.26.98Z"/>
    <path class="cls-1" d="M375.98,137.87l9.01-29.55h11.96v2.48l-4,1v27.35l4,1v2.48h-13.06v-2.48l3.48-1v-27.31l-9.15,30.78h-6.29l-9.1-30.78v27.31l3.48,1v2.48h-11.39v-2.48l4-1v-27.35l-4-1v-2.48h12.15l8.72,29.55h.19Z"/>
    <path class="cls-1" d="M408.53,116.9v13.06c0,2.03.05,3.57.14,4.6.1,1.03.25,1.83.48,2.41.29.76.75,1.34,1.38,1.74.64.4,1.33.6,2.1.6.86,0,1.65-.16,2.38-.48.73-.32,1.4-.75,2-1.29,1.3-1.18,2.02-3,2.14-5.48v-11.87l-4.15-.91v-2.38h9.63v22.45l3.67.91v2.38l-8.24.48-.52-5.24h-.19c-.92,1.62-2.18,2.9-3.76,3.84-1.59.94-3.29,1.41-5.1,1.41-1.21,0-2.31-.23-3.31-.69-1-.46-1.79-1.09-2.36-1.88-.6-.89-1.05-2.14-1.33-3.76-.29-1.62-.43-3.78-.43-6.48v-10.1l-3.19-.91v-2.38h8.67Z"/>
    <path class="cls-1" d="M434.64,139.34v-30.59l-3.67-.91v-2.38h9.1v33.88l3.67.91v2.38h-12.77v-2.38l3.67-.91Z"/>
    <path class="cls-1" d="M466.62,139.34v-9.77c0-2.06-.06-3.6-.17-4.62-.11-1.02-.31-1.81-.6-2.38-.76-1.56-2.16-2.33-4.19-2.33-.89,0-1.75.19-2.57.57s-1.53.94-2.1,1.67c-.41.48-.75,1.11-1,1.91-.25.79-.4,1.76-.43,2.91v12.06l3.19.91v2.38h-12.29v-2.38l3.67-.91v-30.59l-3.67-.91v-2.38h9.1v15.92c.89-1.52,2.05-2.73,3.48-3.62,1.43-.89,3-1.33,4.72-1.33,1.33,0,2.49.19,3.46.57.97.38,1.79.95,2.45,1.72.83.98,1.43,2.3,1.81,3.96.38,1.65.57,3.84.57,6.58v10.1l3.67.91v2.38h-12.29v-2.38l3.19-.91Z"/>
    <path class="cls-1" d="M501.22,130.29h-16.63c0,2.22.32,4.07.95,5.53.57,1.24,1.35,2.16,2.33,2.76.98.6,2.14.91,3.48.91,1.43,0,2.8-.31,4.12-.93,1.32-.62,2.47-1.53,3.46-2.74l2.14,1.67c-1.11,1.56-2.55,2.88-4.31,3.98-1.76,1.1-3.98,1.64-6.65,1.64-2.26,0-4.23-.47-5.91-1.41-1.68-.94-2.97-2.31-3.86-4.12-.48-.98-.83-2.08-1.05-3.29-.22-1.21-.33-2.51-.33-3.91,0-4.45,1.02-7.89,3.07-10.32,2.05-2.43,4.9-3.65,8.55-3.65,3.37,0,6,1.01,7.91,3.03,1.91,2.02,2.86,4.81,2.86,8.36,0,.35,0,.67-.02.98-.02.3-.06.8-.12,1.5ZM490.4,119.42c-3.5,0-5.42,2.7-5.77,8.1h11.1v-1.38c0-2.16-.47-3.82-1.41-4.98-.94-1.16-2.25-1.74-3.93-1.74Z"/>
    <path class="cls-1" d="M519.56,120.09c-.06-.06-.13-.1-.19-.12-.06-.02-.13-.02-.19-.02-.38,0-.79.2-1.24.6-.45.4-.86.89-1.24,1.48-.38.59-.7,1.17-.95,1.74-.38,1.08-.71,2.22-1,3.41s-.43,2.57-.43,4.12v8.05l5.15.91v2.38h-14.25v-2.38l3.67-.91v-19.59l-3.67-.91v-1.95h7.67l1.05,6.29h.19c.73-2.16,1.71-3.83,2.95-5,1.24-1.17,2.6-1.76,4.1-1.76,1.24,0,2.27.39,3.1,1.17.83.78,1.24,1.82,1.24,3.12,0,.95-.27,1.77-.81,2.45-.54.68-1.29,1.02-2.24,1.02-1.08,0-1.88-.28-2.38-.83-.51-.56-.76-1.22-.76-1.98,0-.22,0-.4.02-.55.02-.14.09-.39.21-.74Z"/>
    <path class="cls-1" d="M286.44,182.56c0-2.1.29-4.07.86-5.91.57-1.84,1.37-3.34,2.38-4.48.92-1.02,2.02-1.79,3.29-2.31,1.27-.52,2.71-.79,4.34-.79,1.46,0,2.76.27,3.91.81,1.14.54,2.18,1.51,3.1,2.91v-11.39l-3.67-.91v-2.38h9.15v33.88l3.67.91v2.38l-8.24.48-.38-3.91c-.98,1.46-2.1,2.48-3.34,3.05-1.24.57-2.65.86-4.24.86-1.69,0-3.15-.25-4.38-.76s-2.29-1.25-3.14-2.24c-.99-1.17-1.78-2.65-2.38-4.41-.6-1.76-.91-3.69-.91-5.79ZM304.31,182.61c0-1.87-.15-3.51-.45-4.91-.3-1.4-.69-2.48-1.17-3.24-.48-.79-1.08-1.41-1.81-1.83-.73-.43-1.64-.64-2.72-.64-.92,0-1.78.17-2.57.52-.79.35-1.43.92-1.91,1.71-.48.76-.83,1.84-1.05,3.24s-.33,2.95-.33,4.67c0,1.88.13,3.5.41,4.88.27,1.38.63,2.49,1.07,3.31.48.79,1.1,1.41,1.86,1.86.76.45,1.65.67,2.67.67.89,0,1.72-.17,2.5-.52.78-.35,1.41-.91,1.88-1.67.51-.86.91-1.97,1.19-3.34.29-1.37.43-2.94.43-4.72Z"/>
    <path class="cls-1" d="M339.19,182.94h-16.63c0,2.22.32,4.07.95,5.53.57,1.24,1.35,2.16,2.33,2.76.98.6,2.14.91,3.48.91,1.43,0,2.8-.31,4.12-.93,1.32-.62,2.47-1.53,3.46-2.74l2.14,1.67c-1.11,1.56-2.55,2.88-4.31,3.98-1.76,1.1-3.98,1.64-6.65,1.64-2.26,0-4.23-.47-5.91-1.41-1.68-.94-2.97-2.31-3.86-4.12-.48-.98-.83-2.08-1.05-3.29-.22-1.21-.33-2.51-.33-3.91,0-4.45,1.02-7.89,3.07-10.32,2.05-2.43,4.9-3.65,8.55-3.65,3.37,0,6,1.01,7.91,3.03s2.86,4.81,2.86,8.36c0,.35,0,.67-.02.98-.02.3-.06.8-.12,1.5ZM328.38,172.07c-3.5,0-5.42,2.7-5.77,8.1h11.1v-1.38c0-2.16-.47-3.82-1.41-4.98-.94-1.16-2.25-1.74-3.93-1.74Z"/>
    <path class="cls-1" d="M376.94,184.46h-3.24l-.81-4.62h-7.15v11.82l5.58.91v2.72h-15.63v-2.48l4.48-1.14v-27.21l-4.48-1v-2.48h27.64v10.2h-3.38l-1.53-7h-12.68v12.39h7.15l.81-4.67h3.24v12.58Z"/>
    <path class="cls-1" d="M409.72,182.32c0,2.03-.3,3.96-.91,5.79-.6,1.83-1.46,3.34-2.57,4.55-.99,1.08-2.2,1.87-3.65,2.36-1.45.49-3.12.74-5.03.74s-3.53-.24-4.96-.71-2.65-1.25-3.67-2.33c-1.08-1.21-1.91-2.69-2.5-4.46-.59-1.76-.88-3.66-.88-5.69s.29-3.98.88-5.84,1.45-3.38,2.6-4.55c1.02-1.11,2.24-1.91,3.67-2.38s3.08-.71,4.96-.71,3.53.24,4.98.71c1.45.48,2.68,1.26,3.69,2.33,1.11,1.18,1.95,2.66,2.53,4.46.57,1.79.86,3.71.86,5.74ZM392.37,187.13c.25,1.18.65,2.15,1.19,2.93.54.78,1.22,1.36,2.05,1.74.83.35,1.6.52,2.33.52s1.48-.19,2.24-.57c1.49-.92,2.46-2.84,2.91-5.77.25-1.49.36-2.95.31-4.36-.05-1.41-.21-2.74-.5-3.98-.22-1.14-.61-2.1-1.17-2.88-.56-.78-1.25-1.36-2.07-1.74-.79-.35-1.57-.52-2.31-.52s-1.5.19-2.26.57c-1.52.92-2.49,2.83-2.91,5.72-.48,3.05-.41,5.83.19,8.34Z"/>
    <path class="cls-1" d="M428.02,172.74c-.06-.06-.13-.1-.19-.12s-.13-.02-.19-.02c-.38,0-.79.2-1.24.6-.45.4-.86.89-1.24,1.48-.38.59-.7,1.17-.95,1.74-.38,1.08-.71,2.22-1,3.41s-.43,2.57-.43,4.12v8.05l5.15.91v2.38h-14.25v-2.38l3.67-.91v-19.59l-3.67-.91v-1.95h7.67l1.05,6.29h.19c.73-2.16,1.71-3.83,2.95-5,1.24-1.17,2.6-1.76,4.1-1.76,1.24,0,2.27.39,3.1,1.17.83.78,1.24,1.82,1.24,3.12,0,.95-.27,1.77-.81,2.45-.54.68-1.29,1.02-2.24,1.02-1.08,0-1.88-.28-2.38-.83-.51-.56-.76-1.21-.76-1.98,0-.22,0-.41.02-.55.02-.14.09-.39.21-.74Z"/>
    <path class="cls-1" d="M435.22,172.36v-2.14l4.62-.67.62-5.96,4.81-.67v6.62h6.1v2.81h-6.1v16.16c0,1.08.02,1.82.05,2.22.03.4.09.72.19.98.1.22.27.37.52.45.25.08.67.12,1.24.12h3.34v1.81c-1.71.57-3.22.99-4.53,1.26s-2.33.41-3.1.41c-1.43,0-2.35-.59-2.76-1.76-.13-.38-.22-.87-.29-1.48-.06-.6-.1-1.49-.1-2.67v-17.49h-4.62Z"/>
    <path class="cls-1" d="M453.85,189.66c0-2.54,1.19-4.54,3.57-5.98s6.2-2.57,11.44-3.36c-.13-1.71-.3-3.04-.52-3.98-.22-.94-.51-1.71-.86-2.31-.41-.79-.96-1.4-1.64-1.81-.68-.41-1.49-.62-2.41-.62-.76,0-1.45.14-2.07.41-.62.27-1.04.66-1.26,1.17.44.25.76.63.95,1.12s.29.93.29,1.31c0,.79-.32,1.47-.95,2.03-.64.56-1.4.83-2.29.83s-1.6-.29-2.14-.88-.81-1.37-.81-2.36c0-1.3.46-2.41,1.38-3.34s2.1-1.62,3.53-2.1,2.88-.71,4.34-.71,2.67.21,3.81.62c1.14.41,2.1.97,2.86,1.67,2.29,2.1,3.43,5.61,3.43,10.53v6.48c0,1.56.1,2.64.31,3.24.21.6.66.91,1.36.91h2.14v1.86c-2.67.92-4.7,1.38-6.1,1.38-1.02,0-1.7-.35-2.05-1.05-.35-.7-.52-2.08-.52-4.15h-.19c-.99,1.62-2.29,2.89-3.91,3.81s-3.37,1.38-5.24,1.38c-2,0-3.57-.54-4.72-1.62s-1.72-2.57-1.72-4.48ZM462.81,192.57c.76,0,1.59-.22,2.48-.67.89-.44,1.64-1.08,2.24-1.91.41-.51.76-1.18,1.05-2.02s.43-1.85.43-3.03c0-.44-.02-.91-.05-1.41-.03-.49-.08-.96-.14-1.41-2.35.48-4.19,1-5.53,1.57-1.33.57-2.28,1.24-2.83,2-.56.76-.83,1.71-.83,2.86,0,1.37.31,2.38.93,3.03.62.65,1.37.98,2.26.98Z"/>
    <path class="cls-1" d="M483.54,191.99v-30.59l-3.67-.91v-2.38h9.1v33.88l3.67.91v2.38h-12.77v-2.38l3.67-.91Z"/>
    <path class="cls-1" d="M518.56,182.94h-16.63c0,2.22.32,4.07.95,5.53.57,1.24,1.35,2.16,2.33,2.76.98.6,2.14.91,3.48.91,1.43,0,2.8-.31,4.12-.93,1.32-.62,2.47-1.53,3.46-2.74l2.14,1.67c-1.11,1.56-2.55,2.88-4.31,3.98-1.76,1.1-3.98,1.64-6.65,1.64-2.26,0-4.23-.47-5.91-1.41-1.68-.94-2.97-2.31-3.86-4.12-.48-.98-.83-2.08-1.05-3.29-.22-1.21-.33-2.51-.33-3.91,0-4.45,1.02-7.89,3.07-10.32,2.05-2.43,4.9-3.65,8.55-3.65,3.37,0,6,1.01,7.91,3.03s2.86,4.81,2.86,8.36c0,.35,0,.67-.02.98-.02.3-.06.8-.12,1.5ZM507.74,172.07c-3.5,0-5.42,2.7-5.77,8.1h11.1v-1.38c0-2.16-.47-3.82-1.41-4.98-.94-1.16-2.25-1.74-3.93-1.74Z"/>
    <path class="cls-1" d="M540.43,192.18l.95-6.48h3.57v9.58h-21.97v-3.1l15.2-19.54h-9.86l-1.14,6.24h-3.57v-9.34h21.16v3.1l-15.2,19.54h10.87Z"/>
    <path class="cls-1" d="M549.3,189.66c0-2.54,1.19-4.54,3.57-5.98s6.2-2.57,11.44-3.36c-.13-1.71-.3-3.04-.52-3.98-.22-.94-.51-1.71-.86-2.31-.41-.79-.96-1.4-1.64-1.81-.68-.41-1.49-.62-2.41-.62-.76,0-1.45.14-2.07.41-.62.27-1.04.66-1.26,1.17.44.25.76.63.95,1.12s.29.93.29,1.31c0,.79-.32,1.47-.95,2.03-.64.56-1.4.83-2.29.83s-1.6-.29-2.14-.88-.81-1.37-.81-2.36c0-1.3.46-2.41,1.38-3.34s2.1-1.62,3.53-2.1,2.88-.71,4.34-.71,2.67.21,3.81.62c1.14.41,2.1.97,2.86,1.67,2.29,2.1,3.43,5.61,3.43,10.53v6.48c0,1.56.1,2.64.31,3.24.21.6.66.91,1.36.91h2.14v1.86c-2.67.92-4.7,1.38-6.1,1.38-1.02,0-1.7-.35-2.05-1.05-.35-.7-.52-2.08-.52-4.15h-.19c-.99,1.62-2.29,2.89-3.91,3.81s-3.37,1.38-5.24,1.38c-2,0-3.57-.54-4.72-1.62s-1.72-2.57-1.72-4.48ZM558.26,192.57c.76,0,1.59-.22,2.48-.67.89-.44,1.64-1.08,2.24-1.91.41-.51.76-1.18,1.05-2.02s.43-1.85.43-3.03c0-.44-.02-.91-.05-1.41-.03-.49-.08-.96-.14-1.41-2.35.48-4.19,1-5.53,1.57-1.33.57-2.28,1.24-2.83,2-.56.76-.83,1.71-.83,2.86,0,1.37.31,2.38.93,3.03.62.65,1.37.98,2.26.98Z"/>
  </g>
</svg>